<svg width="16" height="16" viewBox="0 0 16 16" fill="none" xmlns="http://www.w3.org/2000/svg">
<mask id="mask0" mask-type="alpha" maskUnits="userSpaceOnUse" x="1" y="1" width="14" height="14">
<path fill-rule="evenodd" clip-rule="evenodd" d="M7.99998 1.33333C4.31808 1.33333 1.33331 4.3181 1.33331 8C1.33331 11.6819 4.31808 14.6667 7.99998 14.6667C11.6819 14.6667 14.6666 11.6819 14.6666 8C14.6666 4.3181 11.6819 1.33333 7.99998 1.33333ZM7.99998 13.7576C4.82016 13.7576 2.2424 11.1798 2.2424 8C2.2424 4.82018 4.82016 2.24242 7.99998 2.24242C11.1798 2.24242 13.7576 4.82018 13.7576 8C13.7576 11.1798 11.1798 13.7576 7.99998 13.7576ZM11.0303 7.69697H8.30302V4.36363C8.30302 4.11259 8.09951 3.90909 7.84847 3.90909C7.59743 3.90909 7.39393 4.11259 7.39393 4.36363V8.60606H11.0303C11.2813 8.60606 11.4848 8.40255 11.4848 8.15151C11.4848 7.90047 11.2813 7.69697 11.0303 7.69697V7.69697Z" fill="white"/>
</mask>
<g mask="url(#mask0)">
<rect width="16" height="16" fill="#363B48"/>
</g>
</svg>
