<svg width="24" height="24" viewBox="0 0 24 24" fill="none" xmlns="http://www.w3.org/2000/svg">
<mask id="mask0" mask-type="alpha" maskUnits="userSpaceOnUse" x="2" y="2" width="20" height="20">
<path fill-rule="evenodd" clip-rule="evenodd" d="M22 7.75568C22.0061 5.0862 20.1716 2.76462 17.5731 2.15321C14.9746 1.54179 12.2974 2.80181 11.1125 5.19393C11.0801 5.21177 11.049 5.23189 11.0195 5.25414L2.26135 14.0123C2.04168 14.217 1.95126 14.5252 2.02556 14.8161C2.09985 15.1071 2.32701 15.3342 2.61793 15.4085C2.90885 15.4828 3.21711 15.3924 3.4218 15.1727L10.5378 8.05674C10.7024 10.9323 12.9699 13.2419 15.8419 13.4594L8.86827 20.0006C8.54398 20.3119 8.53021 20.826 8.83738 21.1541C9.14454 21.4823 9.65845 21.5025 9.9904 21.1994L18.7485 12.9887C18.7793 12.9529 18.8068 12.9144 18.8306 12.8737C20.7675 11.9016 21.9929 9.92276 22 7.75568ZM16.2525 11.8611C13.9851 11.8611 12.1471 10.023 12.1471 7.75568C12.1471 5.48834 13.9851 3.65031 16.2525 3.65031C18.5198 3.65031 20.3578 5.48834 20.3578 7.75568C20.3578 10.023 18.5198 11.8611 16.2525 11.8611ZM11.5669 13.4704L4.72458 20.3126C4.50491 20.5173 4.41448 20.8256 4.48878 21.1165C4.56307 21.4074 4.79024 21.6346 5.08115 21.7089C5.37207 21.7832 5.68034 21.6928 5.88503 21.4731L12.7273 14.6308C13.0475 14.3102 13.0475 13.7909 12.7273 13.4704C12.4067 13.1502 11.8874 13.1502 11.5669 13.4704ZM9.37733 11.2808C9.6979 10.9607 10.2172 10.9607 10.5378 11.2808C10.858 11.6014 10.858 12.1207 10.5378 12.4413L3.6955 19.2836C3.49081 19.5032 3.18254 19.5937 2.89162 19.5194C2.6007 19.4451 2.37354 19.2179 2.29925 18.927C2.22495 18.6361 2.31538 18.3278 2.53504 18.1231L9.37733 11.2808Z" fill="white"/>
</mask>
<g mask="url(#mask0)">
<rect width="24" height="24" fill="#363B48"/>
</g>
</svg>
