<svg width="24" height="24" viewBox="0 0 24 24" fill="none" xmlns="http://www.w3.org/2000/svg">
<mask id="mask0" mask-type="alpha" maskUnits="userSpaceOnUse" x="2" y="3" width="20" height="18">
<path fill-rule="evenodd" clip-rule="evenodd" d="M16.0946 4.36545C17.3079 4.34042 18.4788 4.81138 19.3369 5.66948C20.195 6.52758 20.666 7.69857 20.641 8.91185C20.6131 9.54242 20.4584 10.1609 20.1863 10.7304C19.3771 12.358 12.0028 18.9139 12.0028 18.9139C12.0028 18.9139 4.63763 12.3535 3.81928 10.7304C3.52779 10.1681 3.37208 9.54523 3.36464 8.91185C3.34349 7.69971 3.81569 6.53099 4.67293 5.67374C5.53017 4.8165 6.6989 4.3443 7.91104 4.36545C9.13403 4.36545 11.1845 6.30676 12.0028 7.09329C12.8212 6.31131 14.8716 4.36545 16.0946 4.36545ZM16.0946 3.00153C15.0171 3.00153 13.7623 3.67894 12.0028 5.23381C10.2433 3.67894 8.98854 3.00153 7.91104 3.00153C5.88896 2.95513 3.98981 3.96936 2.90374 5.67565C1.81767 7.38193 1.70278 9.53188 2.60084 11.3442C3.4692 13.0673 9.32043 18.3547 11.0935 19.9323C11.6113 20.3954 12.3943 20.3954 12.9121 19.9323C14.6897 18.3547 20.5501 13.0673 21.4093 11.3351C22.2978 9.52245 22.1775 7.37787 21.0921 5.67587C20.0066 3.97388 18.1128 2.96042 16.0946 3.00153Z" fill="white"/>
</mask>
<g mask="url(#mask0)">
<rect width="24" height="24" fill="#363B48"/>
</g>
</svg>
