<svg width="24" height="24" viewBox="0 0 24 24" fill="none" xmlns="http://www.w3.org/2000/svg">
<mask id="mask0" mask-type="alpha" maskUnits="userSpaceOnUse" x="2" y="3" width="20" height="19">
<path fill-rule="evenodd" clip-rule="evenodd" d="M22 8.78035C21.9981 8.01304 21.5576 7.3144 20.866 6.98196C20.1744 6.64953 19.3537 6.74185 18.7533 7.21962C18.1528 7.69738 17.8785 8.47643 18.0471 9.22499L15.1347 12.3686C14.4106 11.9812 13.5213 12.0897 12.9115 12.6398L10.3993 11.008C10.5972 10.1811 10.2522 9.31932 9.53838 8.85746C8.82452 8.39561 7.89701 8.43412 7.22391 8.95356C6.5508 9.47301 6.27843 10.3605 6.54424 11.1681L3.33393 14.6541V3.66696C3.33393 3.29861 3.03532 3 2.66696 3C2.29861 3 2 3.29861 2 3.66696V20.7857C2 21.154 2.29861 21.4526 2.66696 21.4526H19.7857C20.2235 21.3431 20.5654 21.0012 20.675 20.5634V10.6567C21.4683 10.3734 21.9984 9.62271 22 8.78035ZM19.3321 20.1187H14.8857V15.9924C15.4018 15.8135 15.8212 15.4297 16.0451 14.9315C16.2689 14.4333 16.2774 13.8648 16.0685 13.3602L18.9097 10.4522C19.042 10.5368 19.1838 10.6054 19.3321 10.6567V20.1187ZM9.10538 12.4353C9.32581 12.3562 9.53053 12.2388 9.71009 12.0885L12.2579 13.7248C12.0606 14.698 12.6136 15.6671 13.5518 15.9924V20.1187H9.10538V12.4353ZM14.2188 13.4491C14.5871 13.4491 14.8857 13.7477 14.8857 14.1161C14.8857 14.4844 14.5871 14.783 14.2188 14.783C13.8504 14.783 13.5518 14.4844 13.5518 14.1161C13.5518 13.7477 13.8504 13.4491 14.2188 13.4491ZM8.43842 9.89195C8.80677 9.89195 9.10538 10.1906 9.10538 10.5589C9.10538 10.9273 8.80677 11.2259 8.43842 11.2259C8.07006 11.2259 7.77145 10.9273 7.77145 10.5589C7.77145 10.1906 8.07006 9.89195 8.43842 9.89195ZM3.32503 16.606L3.3695 16.5705L7.37128 12.2397C7.49972 12.3203 7.63697 12.3859 7.78035 12.4353V20.1187H3.33393L3.32503 16.606ZM19.9991 9.44731C19.6308 9.44731 19.3321 9.1487 19.3321 8.78035C19.3321 8.41199 19.6308 8.11338 19.9991 8.11338C20.3675 8.11338 20.6661 8.41199 20.6661 8.78035C20.6661 9.1487 20.3675 9.44731 19.9991 9.44731Z" fill="white"/>
</mask>
<g mask="url(#mask0)">
<rect width="24" height="24" fill="#363B48"/>
</g>
</svg>
