<svg width="558" height="558" viewBox="0 0 558 558" fill="none" xmlns="http://www.w3.org/2000/svg">
<rect width="558" height="558" fill="white"/>
<path fill-rule="evenodd" clip-rule="evenodd" d="M87.4088 257.659C104.27 206.364 185.87 167.457 283.992 167.457C394.327 167.457 483.77 216.652 483.77 277.335C483.77 338.019 394.327 387.213 283.992 387.213C185.87 387.213 104.27 348.306 87.4089 297.012C83.5042 296.328 79.7638 294.478 76.7478 291.462C68.946 283.66 68.946 271.011 76.7478 263.209C79.7638 260.193 83.5041 258.343 87.4088 257.659ZM94.2976 257.651C111.319 208.56 189.777 171.453 283.992 171.453C390.648 171.453 477.11 219.007 477.11 277.668C477.11 336.329 390.648 383.883 283.992 383.883C189.374 383.883 110.649 346.459 94.0829 297.055C98.0801 296.408 101.919 294.544 105.001 291.462C112.802 283.66 112.802 271.011 105.001 263.209C101.974 260.182 98.2175 258.33 94.2976 257.651Z" fill="#2A2D2D"/>
<path fill-rule="evenodd" clip-rule="evenodd" d="M426.13 157.538C450.475 205.732 420.286 290.941 350.905 360.322C272.887 438.341 174.855 466.801 131.945 423.891C89.0352 380.981 117.496 282.95 195.514 204.932C264.898 135.548 350.11 105.359 398.303 129.709C401.549 127.431 405.502 126.094 409.768 126.094C420.802 126.094 429.746 135.038 429.746 146.072C429.746 150.338 428.409 154.293 426.13 157.538ZM421.267 162.411C443.944 209.159 414.705 290.877 348.085 357.497C272.667 432.915 177.903 460.427 136.424 418.947C94.9439 377.467 122.456 282.704 197.874 207.286C264.778 140.382 346.907 111.178 393.555 134.397C391.186 137.681 389.791 141.713 389.791 146.072C389.791 157.105 398.735 166.049 409.768 166.049C414.049 166.049 418.015 164.703 421.267 162.411Z" fill="#2A2D2D"/>
<path fill-rule="evenodd" clip-rule="evenodd" d="M398.305 426.128C350.111 450.476 264.9 420.288 195.517 350.905C117.499 272.887 89.0382 174.855 131.948 131.945C174.858 89.0352 272.889 117.496 350.908 195.514C420.29 264.897 450.479 350.107 426.132 398.301C428.409 401.546 429.746 405.499 429.746 409.765C429.746 420.798 420.802 429.743 409.768 429.743C405.503 429.743 401.55 428.406 398.305 426.128ZM393.43 421.264C346.68 443.937 264.967 414.698 198.349 348.08C122.931 272.662 95.4191 177.898 136.899 136.419C178.378 94.939 273.142 122.451 348.559 197.869C415.466 264.775 444.669 346.907 421.447 393.554C418.162 391.184 414.129 389.787 409.768 389.787C398.735 389.787 389.791 398.731 389.791 409.765C389.791 414.046 391.137 418.013 393.43 421.264Z" fill="#2A2D2D"/>
<path fill-rule="evenodd" clip-rule="evenodd" d="M217.408 277.335C217.408 244.235 244.241 217.402 277.341 217.402C310.442 217.402 337.275 244.235 337.275 277.335C337.275 310.435 310.442 337.269 277.341 337.269C244.241 337.269 217.408 310.435 217.408 277.335Z" fill="#2A2D2D"/>
</svg>
