<svg width="32" height="32" viewBox="0 0 32 32" fill="none" xmlns="http://www.w3.org/2000/svg">
<path fill-rule="evenodd" clip-rule="evenodd" d="M27.3137 4.61094C28.7536 6.07031 29.3811 8.14613 29.2746 10.5046C30.9954 12.096 32 14.0135 32 16.0774C32 18.1412 30.9954 20.0588 29.2746 21.6501C29.3811 24.0086 28.7536 26.0844 27.3137 27.5438C24.8068 30.0846 20.4562 30.1295 16 28.0981C11.5438 30.1295 7.19322 30.0845 4.68629 27.5438C3.24635 26.0844 2.61885 24.0086 2.72536 21.6501C1.00456 20.0587 0 18.1412 0 16.0774C0 14.0135 1.00456 12.096 2.72537 10.5046C2.61885 8.14614 3.24636 6.07032 4.68629 4.61095C7.19322 2.07018 11.5438 2.02521 16 4.05664C20.4562 2.0252 24.8068 2.07017 27.3137 4.61094Z" fill="white"/>
<path fill-rule="evenodd" clip-rule="evenodd" d="M2.47764 14.5507C3.66773 10.8814 9.42721 8.09823 16.3529 8.09823C24.1404 8.09823 30.4535 11.6173 30.4535 15.9583C30.4535 20.2993 24.1404 23.8183 16.3529 23.8183C9.42718 23.8183 3.66768 21.0351 2.47762 17.3657C2.2021 17.3168 1.93819 17.1844 1.72538 16.9688C1.17471 16.4107 1.17471 15.5058 1.72538 14.9477C1.93819 14.732 2.20211 14.5997 2.47764 14.5507ZM2.96432 14.5502C4.16572 11.0385 9.70339 8.38404 16.3533 8.38404C23.8813 8.38404 29.9839 11.7858 29.9839 15.9821C29.9839 20.1784 23.8813 23.5801 16.3533 23.5801C9.67496 23.5801 4.1184 20.9029 2.94915 17.3688C3.2312 17.3225 3.50204 17.1892 3.71951 16.9688C4.27017 16.4107 4.27017 15.5058 3.71951 14.9477C3.50594 14.7313 3.2409 14.5988 2.96432 14.5502Z" fill="#2A2D2D"/>
<path fill-rule="evenodd" clip-rule="evenodd" d="M26.3846 7.38843C28.1031 10.8359 25.9723 16.9315 21.0752 21.8947C15.5685 27.4757 8.64927 29.5116 5.62062 26.4421C2.59195 23.3725 4.60077 16.3599 10.1074 10.7789C15.0046 5.81567 21.0189 3.65613 24.4205 5.39785C24.6496 5.23494 24.9286 5.13932 25.2296 5.13932C26.0084 5.13932 26.6397 5.77915 26.6397 6.56842C26.6397 6.87353 26.5453 7.15631 26.3846 7.38843ZM26.0412 7.73722C27.6418 11.0814 25.5781 16.927 20.8758 21.6926C15.5527 27.0876 8.86414 29.0557 5.93645 26.0884C3.00873 23.1212 4.95059 16.3423 10.2737 10.9474C14.9959 6.16139 20.7928 4.07231 24.0853 5.73326C23.9181 5.96817 23.8196 6.25664 23.8196 6.56842C23.8196 7.35768 24.4509 7.99752 25.2296 7.99752C25.5318 7.99751 25.8117 7.9012 26.0412 7.73722Z" fill="#2A2D2D"/>
<path fill-rule="evenodd" clip-rule="evenodd" d="M24.4206 26.6022C21.019 28.3438 15.0047 26.1843 10.1076 21.221C4.60098 15.6401 2.59218 8.62743 5.62083 5.55791C8.6495 2.48835 15.5687 4.52429 21.0754 10.1053C25.9726 15.0686 28.1034 21.1642 26.3847 24.6117C26.5454 24.8438 26.6397 25.1265 26.6397 25.4316C26.6397 26.2208 26.0084 26.8607 25.2296 26.8607C24.9286 26.8607 24.6496 26.7651 24.4206 26.6022ZM24.0764 26.2542C20.7768 27.8759 15.0093 25.7843 10.3073 21.0189C4.98425 15.624 3.04241 8.84508 5.9701 5.87788C8.89781 2.91065 15.5864 4.87871 20.9095 10.2736C25.6319 15.0598 27.6931 20.9351 26.054 24.272C25.8221 24.1024 25.5374 24.0025 25.2296 24.0025C24.4509 24.0025 23.8196 24.6423 23.8196 25.4316C23.8196 25.7378 23.9146 26.0216 24.0764 26.2542Z" fill="#2A2D2D"/>
<path fill-rule="evenodd" clip-rule="evenodd" d="M11.6527 15.9583C11.6527 13.5905 13.5466 11.671 15.8829 11.671C18.2192 11.671 20.1131 13.5905 20.1131 15.9583C20.1131 18.3261 18.2192 20.2456 15.8829 20.2456C13.5466 20.2456 11.6527 18.3261 11.6527 15.9583Z" fill="#2A2D2D"/>
</svg>
