<svg width="558" height="558" viewBox="0 0 558 558" fill="none" xmlns="http://www.w3.org/2000/svg">
<rect width="558" height="558" fill="white"/>
<path fill-rule="evenodd" clip-rule="evenodd" d="M87.4153 257.659C104.276 206.365 185.876 167.457 283.999 167.457C394.333 167.457 483.777 216.652 483.777 277.335C483.777 338.019 394.333 387.213 283.999 387.213C185.877 387.213 104.276 348.306 87.4153 297.011C83.5117 296.327 79.7725 294.477 76.7573 291.462C68.9555 283.66 68.9555 271.011 76.7573 263.209C79.7725 260.194 83.5117 258.344 87.4153 257.659ZM94.3103 257.652C111.332 208.56 189.789 171.453 284.005 171.453C390.661 171.453 477.123 219.007 477.123 277.668C477.123 336.329 390.661 383.883 284.005 383.883C189.387 383.883 110.662 346.458 94.0955 297.055C98.0917 296.407 101.929 294.543 105.01 291.462C112.812 283.66 112.812 271.011 105.01 263.209C101.984 260.183 98.229 258.331 94.3103 257.652Z" fill="#2A2D2D"/>
<path fill-rule="evenodd" clip-rule="evenodd" d="M426.129 157.536C450.476 205.729 420.287 290.94 350.905 360.322C272.887 438.341 174.855 466.801 131.945 423.891C89.0353 380.981 117.496 282.95 195.514 204.932C264.897 135.549 350.108 105.36 398.302 129.708C401.547 127.431 405.5 126.094 409.765 126.094C420.799 126.094 429.743 135.038 429.743 146.072C429.743 150.337 428.406 154.291 426.129 157.536ZM421.263 162.411C443.94 209.16 414.701 290.877 348.081 357.497C272.663 432.915 177.899 460.427 136.42 418.947C94.9402 377.467 122.452 282.704 197.87 207.286C264.774 140.382 346.904 111.178 393.552 134.397C391.183 137.681 389.788 141.713 389.788 146.072C389.788 157.105 398.732 166.05 409.765 166.05C414.046 166.049 418.012 164.703 421.263 162.411Z" fill="#2A2D2D"/>
<path fill-rule="evenodd" clip-rule="evenodd" d="M398.303 426.129C350.109 450.476 264.899 420.287 195.517 350.905C117.499 272.887 89.0382 174.855 131.948 131.945C174.858 89.0353 272.889 117.496 350.908 195.514C420.291 264.898 450.48 350.11 426.13 398.303C428.407 401.548 429.743 405.5 429.743 409.765C429.743 420.798 420.799 429.743 409.765 429.743C405.501 429.743 401.548 428.406 398.303 426.129ZM393.427 421.265C346.678 443.937 264.965 414.697 198.347 348.08C122.929 272.662 95.4175 177.898 136.897 136.419C178.377 94.9389 273.14 122.451 348.558 197.869C415.464 264.775 444.668 346.908 421.445 393.555C418.16 391.184 414.126 389.787 409.765 389.787C398.732 389.787 389.788 398.732 389.788 409.765C389.788 414.046 391.134 418.013 393.427 421.265Z" fill="#2A2D2D"/>
<path fill-rule="evenodd" clip-rule="evenodd" d="M217.407 277.335C217.407 244.235 244.24 217.402 277.341 217.402C310.441 217.402 337.274 244.235 337.274 277.335C337.274 310.435 310.441 337.269 277.341 337.269C244.24 337.269 217.407 310.435 217.407 277.335Z" fill="#2A2D2D"/>
</svg>
