<svg width="24" height="24" viewBox="0 0 24 24" fill="none" xmlns="http://www.w3.org/2000/svg">
<mask id="mask0" mask-type="alpha" maskUnits="userSpaceOnUse" x="2" y="2" width="20" height="20">
<path fill-rule="evenodd" clip-rule="evenodd" d="M2 12C2 17.523 6.477 22 12 22C17.523 22 22 17.523 22 12C22 6.477 17.523 2 12 2C6.477 2 2 6.477 2 12ZM3.364 12C3.364 9.709 4.274 7.512 5.893 5.893C7.513 4.273 9.71 3.363 12 3.363C16.769 3.363 20.637 7.231 20.637 12C20.637 16.77 16.769 20.636 12 20.636C7.23 20.636 3.364 16.77 3.364 12ZM14.618 10.157L11.705 13.263L8.791 10.157C8.657 10.017 8.477 9.947 8.298 9.947C8.132 9.947 7.964 10.008 7.833 10.131C7.56 10.386 7.544 10.813 7.795 11.089L11.277 14.727C11.307 14.749 11.339 14.769 11.373 14.786C11.408 14.814 11.447 14.839 11.486 14.859C11.528 14.873 11.57 14.882 11.614 14.886C11.696 14.913 11.786 14.913 11.868 14.886C11.912 14.882 11.954 14.873 11.996 14.859C12.035 14.839 12.074 14.814 12.109 14.786C12.142 14.769 12.175 14.749 12.204 14.727L15.614 11.089C15.866 10.813 15.848 10.386 15.576 10.131C15.444 10.008 15.278 9.947 15.111 9.947C14.931 9.947 14.752 10.017 14.618 10.157Z" fill="white"/>
</mask>
<g mask="url(#mask0)">
<rect width="24" height="24" fill="#363B48"/>
</g>
</svg>
