<svg width="24" height="24" viewBox="0 0 24 24" fill="none" xmlns="http://www.w3.org/2000/svg">
<mask id="mask0" mask-type="alpha" maskUnits="userSpaceOnUse" x="2" y="2" width="20" height="20">
<path fill-rule="evenodd" clip-rule="evenodd" d="M12 2C6.47715 2 2 6.47715 2 12C2 17.5228 6.47715 22 12 22C17.5228 22 22 17.5228 22 12C22 6.47715 17.5228 2 12 2V2ZM12 20.6364C7.23027 20.6364 3.36364 16.7697 3.36364 12C3.36364 7.23027 7.23027 3.36364 12 3.36364C16.7697 3.36364 20.6364 7.23027 20.6364 12C20.6364 14.2905 19.7265 16.4872 18.1068 18.1068C16.4872 19.7265 14.2905 20.6364 12 20.6364ZM10.8409 11.9545L13.9727 8.82273C14.1551 8.65275 14.2302 8.39677 14.1685 8.15519C14.1068 7.91362 13.9182 7.72498 13.6766 7.66329C13.4351 7.60159 13.1791 7.67668 13.0091 7.85909L8.91818 11.95L9.96818 13L13.0227 16.0545C13.1927 16.237 13.4487 16.312 13.6903 16.2504C13.9318 16.1887 14.1205 16 14.1822 15.7584C14.2439 15.5169 14.1688 15.2609 13.9864 15.0909L10.8409 11.9545Z" fill="white"/>
</mask>
<g mask="url(#mask0)">
<rect width="24" height="24" fill="#0057A1"/>
</g>
</svg>
