<svg width="24" height="24" viewBox="0 0 24 24" fill="none" xmlns="http://www.w3.org/2000/svg">
<mask id="mask0" mask-type="alpha" maskUnits="userSpaceOnUse" x="9" y="7" width="7" height="10">
<path fill-rule="evenodd" clip-rule="evenodd" d="M13.6185 7.216L9.2175 11.43C9.1905 11.466 9.1665 11.505 9.1465 11.545V11.545C9.1125 11.588 9.0825 11.635 9.0585 11.683V11.683C9.0425 11.733 9.0315 11.785 9.0255 11.837V11.837C8.9915 11.937 8.9915 12.045 9.0255 12.145V12.145C9.0315 12.197 9.0425 12.248 9.0585 12.299V12.299C9.0825 12.348 9.1125 12.394 9.1465 12.437V12.437C9.1665 12.477 9.1905 12.516 9.2175 12.552V12.552L13.6185 16.678C13.9525 16.982 14.4695 16.963 14.7775 16.632V16.632C15.0865 16.303 15.0725 15.786 14.7465 15.473V15.473L10.9885 11.947L14.7465 8.421C15.0725 8.107 15.0865 7.591 14.7775 7.261V7.261C14.6155 7.088 14.3955 7 14.1745 7V7C13.9765 7 13.7775 7.072 13.6185 7.216V7.216Z" fill="white"/>
</mask>
<g mask="url(#mask0)">
<rect width="24" height="24" fill="#0057A1"/>
</g>
</svg>
