<svg width="24" height="24" viewBox="0 0 24 24" fill="none" xmlns="http://www.w3.org/2000/svg">
<mask id="mask0" mask-type="alpha" maskUnits="userSpaceOnUse" x="7" y="9" width="10" height="6">
<path fill-rule="evenodd" clip-rule="evenodd" d="M12.464 9.21741V9.21741V9.21741C12.4276 9.19028 12.389 9.16635 12.3485 9.14589C12.3057 9.11207 12.2596 9.08259 12.2109 9.05787C12.1608 9.04181 12.1092 9.03075 12.0569 9.02486C11.9569 8.99171 11.8488 8.99171 11.7488 9.02486C11.6965 9.03075 11.6449 9.04181 11.5948 9.05787C11.5462 9.08259 11.5001 9.11207 11.4573 9.14589C11.4168 9.16635 11.3781 9.19028 11.3417 9.21741V9.21741V9.21741L7.21577 13.6184C6.91121 13.952 6.93148 14.4685 7.26127 14.7772C7.59106 15.0859 8.10776 15.0721 8.42055 14.7462L11.9469 10.9888L15.4732 14.7462C15.786 15.0721 16.3027 15.0859 16.6325 14.7772C16.9623 14.4685 16.9826 13.952 16.678 13.6184L12.464 9.21741Z" fill="white"/>
</mask>
<g mask="url(#mask0)">
<rect width="24" height="24" fill="#0057A1"/>
</g>
</svg>
