<svg width="24" height="24" viewBox="0 0 24 24" fill="none" xmlns="http://www.w3.org/2000/svg">
<mask id="mask0" mask-type="alpha" maskUnits="userSpaceOnUse" x="2" y="2" width="20" height="20">
<path fill-rule="evenodd" clip-rule="evenodd" d="M21.5668 2.40567C21.1473 1.99671 20.5206 1.88535 19.9859 2.12473L2.84383 9.79104C2.28758 10.0406 1.95101 10.6156 2.00582 11.2228C2.06062 11.83 2.49473 12.3355 3.08667 12.4814L9.91016 14.1623L12.0529 21C12.2327 21.5737 12.7523 21.9734 13.3529 22H13.4195C13.9956 22.0006 14.5157 21.6552 14.7385 21.1238L21.881 3.98179C22.1098 3.44172 21.9851 2.81671 21.5668 2.40567ZM13.4148 20.5715L11.0339 12.9528L3.41523 11.0815L20.5573 3.41515L13.4148 20.5715Z" fill="white"/>
</mask>
<g mask="url(#mask0)">
<rect width="24" height="24" fill="#363B48"/>
</g>
</svg>
