<svg width="24" height="24" viewBox="0 0 24 24" fill="none" xmlns="http://www.w3.org/2000/svg">
<mask id="mask0" mask-type="alpha" maskUnits="userSpaceOnUse" x="2" y="2" width="20" height="20">
<path fill-rule="evenodd" clip-rule="evenodd" d="M12 2C6.47715 2 2 6.47715 2 12C2 17.5228 6.47715 22 12 22C17.5228 22 22 17.5228 22 12C22 6.47715 17.5228 2 12 2V2ZM12 20.6364C7.23027 20.6364 3.36364 16.7697 3.36364 12C3.36364 7.23027 7.23027 3.36364 12 3.36364C16.7697 3.36364 20.6364 7.23027 20.6364 12C20.6364 14.2905 19.7265 16.4872 18.1068 18.1068C16.4872 19.7265 14.2905 20.6364 12 20.6364ZM12.7227 9.27273V9.27273V9.27273C12.6927 9.25031 12.6607 9.23054 12.6273 9.21364C12.5919 9.1857 12.5538 9.16133 12.5136 9.14091C12.4722 9.12764 12.4296 9.11851 12.3864 9.11364C12.3037 9.08625 12.2145 9.08625 12.1318 9.11364C12.0886 9.11851 12.046 9.12764 12.0045 9.14091C11.9644 9.16133 11.9263 9.1857 11.8909 9.21364C11.8574 9.23054 11.8255 9.25031 11.7955 9.27273V9.27273V9.27273L8.38636 12.9091C8.13471 13.1847 8.15147 13.6115 8.42396 13.8666C8.69644 14.1216 9.12337 14.1102 9.38182 13.8409L12.2955 10.7364L15.2091 13.8409C15.4675 14.1102 15.8945 14.1216 16.167 13.8666C16.4394 13.6115 16.4562 13.1847 16.2045 12.9091L12.7227 9.27273Z" fill="white"/>
</mask>
<g mask="url(#mask0)">
<rect width="24" height="24" fill="#0057A1"/>
</g>
</svg>
