<svg width="24" height="24" viewBox="0 0 24 24" fill="none" xmlns="http://www.w3.org/2000/svg">
<mask id="mask0" mask-type="alpha" maskUnits="userSpaceOnUse" x="9" y="7" width="6" height="10">
<path fill-rule="evenodd" clip-rule="evenodd" d="M9.22292 7.261C8.91392 7.591 8.92792 8.107 9.25392 8.421V8.421L13.0109 11.947L9.25392 15.473C8.92792 15.786 8.91392 16.303 9.22292 16.632V16.632C9.53092 16.963 10.0479 16.982 10.3819 16.678V16.678L14.7829 12.464C14.8099 12.428 14.8339 12.389 14.8539 12.348V12.348C14.8879 12.306 14.9169 12.259 14.9419 12.211V12.211C14.9579 12.161 14.9689 12.109 14.9739 12.057V12.057C15.0079 11.957 15.0079 11.849 14.9739 11.749V11.749C14.9689 11.697 14.9579 11.645 14.9419 11.595V11.595C14.9169 11.546 14.8879 11.5 14.8539 11.457V11.457C14.8339 11.417 14.8099 11.378 14.7829 11.342V11.342L10.3819 7.216C10.2229 7.072 10.0239 7 9.82592 7V7C9.60492 7 9.38492 7.088 9.22292 7.261V7.261Z" fill="white"/>
</mask>
<g mask="url(#mask0)">
<rect width="24" height="24" fill="#0057A1"/>
</g>
</svg>
