<svg width="24" height="24" viewBox="0 0 24 24" fill="none" xmlns="http://www.w3.org/2000/svg">
<mask id="mask0" mask-type="alpha" maskUnits="userSpaceOnUse" x="2" y="3" width="20" height="19">
<path fill-rule="evenodd" clip-rule="evenodd" d="M12 9.52192C10.9831 9.5226 10.1026 10.2281 9.88018 11.2203C9.65775 12.2126 10.1529 13.2264 11.0721 13.6611C11.9914 14.0958 13.0892 13.8352 13.715 13.0337C14.3407 12.2322 14.3273 11.1039 13.6826 10.3176C13.2694 9.81353 12.6518 9.52149 12 9.52192ZM12.5522 12.3698C12.2802 12.5932 11.9004 12.6306 11.59 12.4646C11.2797 12.2985 11.1 11.9618 11.1349 11.6116C11.1698 11.2614 11.4124 10.9667 11.7494 10.8652C12.0864 10.7637 12.4514 10.8753 12.6739 11.148C12.9769 11.5192 12.9224 12.0656 12.5522 12.3698ZM22 12.035C22 10.3567 20.5609 9.10453 18.4652 8.30453C18.4652 8.24366 18.487 8.18279 18.4957 8.12627C18.9304 5.00453 17.7522 3.80888 17 3.3741C16.5606 3.12347 16.0624 2.99441 15.5565 3.00019C14.4696 3.00019 13.2391 3.5654 12 4.5654C10.7609 3.5654 9.53043 3.00019 8.44348 3.00019C7.93767 2.99462 7.43949 3.12367 7 3.3741C6.24783 3.80888 5.05652 5.00019 5.50435 8.12627C5.50435 8.18714 5.52609 8.24801 5.53478 8.30453C3.43913 9.10453 2 10.3567 2 12.035C2 13.7132 3.44348 14.9654 5.54348 15.7654C5.18696 17.9828 5.54348 19.8524 7 20.6915C7.43941 20.9421 7.93765 21.0712 8.44348 21.0654C9.53043 21.0654 10.7609 20.5002 12 19.5002C13.2391 20.5002 14.4696 21.0654 15.5565 21.0654C16.0624 21.0712 16.5606 20.9421 17 20.6915C18.4522 19.8524 18.8087 17.9784 18.4565 15.7654C20.5565 14.9654 22 13.7176 22 12.035ZM16.3478 4.50453C17.1739 4.98279 17.4391 6.24366 17.2174 7.90019C16.3865 7.67803 15.5409 7.5153 14.687 7.41323C14.1721 6.71893 13.6068 6.06353 12.9957 5.45236C13.9391 4.72193 14.8304 4.30453 15.5652 4.30453C15.8391 4.30138 16.109 4.37035 16.3478 4.50453ZM16.5696 13.635C16.7174 14.0698 16.8478 14.4741 16.9522 14.8741C16.5565 14.9828 16.1304 15.0784 15.6913 15.1611C15.8449 14.9147 15.9899 14.6625 16.1261 14.4045C16.2623 14.1466 16.4087 13.8958 16.5652 13.6524L16.5696 13.635ZM15.013 13.7567C14.6783 14.3393 14.3217 14.8871 13.9565 15.4045C13.3261 15.4611 12.6739 15.4958 12 15.4958C11.3261 15.4958 10.6957 15.4611 10.0435 15.4045C9.67826 14.8871 9.32174 14.3393 8.98696 13.7567C8.65217 13.1741 8.35217 12.5915 8.08696 12.0176C8.35217 11.4437 8.64783 10.8611 8.98696 10.2784C9.32609 9.69584 9.67826 9.14801 10.0435 8.63062C10.6739 8.5741 11.3261 8.53932 12 8.53932C12.6739 8.53932 13.3043 8.5741 13.9565 8.63062C14.3217 9.14801 14.6783 9.69584 15.013 10.2784C15.3478 10.8611 15.6478 11.4437 15.913 12.0176C15.6478 12.6089 15.3478 13.1915 15.013 13.7741V13.7567ZM12 17.735C11.7101 17.4451 11.4203 17.1277 11.1304 16.7828C11.4203 16.7828 11.7101 16.7828 12 16.7828C12.2899 16.7828 12.5797 16.7828 12.8696 16.7828C12.5855 17.1364 12.2957 17.4596 12 17.7524V17.735ZM7.85652 14.4089C8.00435 14.6669 8.14928 14.919 8.2913 15.1654C7.85652 15.0828 7.42174 14.9871 7.03043 14.8784C7.13478 14.4784 7.26522 14.0654 7.41304 13.6393C7.56087 13.906 7.71304 14.1683 7.86957 14.4263L7.85652 14.4089ZM7.42174 10.4002C7.27391 9.9654 7.14348 9.56106 7.03913 9.16106C7.43478 9.05236 7.86087 8.95671 8.3 8.8741C8.14638 9.12048 8.00145 9.37265 7.86522 9.63062C7.72899 9.88859 7.58551 10.1509 7.43478 10.4176L7.42174 10.4002ZM11.9913 6.30019C12.2812 6.59004 12.571 6.90743 12.8609 7.25236C12.571 7.25236 12.2812 7.25236 11.9913 7.25236C11.7014 7.25236 11.4116 7.25236 11.1217 7.25236C11.4116 6.92192 11.7043 6.61033 12 6.31758L11.9913 6.30019ZM16.1348 9.62627C15.987 9.3683 15.842 9.11613 15.7 8.86975C16.1348 8.95236 16.5696 9.04801 16.9609 9.15671C16.8565 9.55671 16.7261 9.9741 16.5783 10.3958C16.4333 10.1495 16.2841 9.89874 16.1304 9.64366L16.1348 9.62627ZM7.64348 4.48714C7.88484 4.35147 8.15794 4.28245 8.43478 4.28714C9.16957 4.28714 10.0609 4.72193 11.0043 5.43497C10.3932 6.04614 9.82786 6.70154 9.31304 7.39584C8.45908 7.49791 7.61346 7.66064 6.78261 7.88279C6.56522 6.24366 6.82609 4.98279 7.65217 4.50453L7.64348 4.48714ZM3.29565 12.0176C3.29565 11.0654 4.25217 10.2045 5.8 9.57845C6.03052 10.4143 6.32113 11.2323 6.66957 12.0263C6.33068 12.8182 6.04881 13.6333 5.82609 14.4654C4.26522 13.8698 3.30435 13.0002 3.30435 12.035L3.29565 12.0176ZM7.64348 19.548C6.81739 19.0698 6.55217 17.8089 6.77391 16.1524C7.60477 16.3745 8.45038 16.5372 9.30435 16.6393C9.81915 17.3336 10.3845 17.989 10.9957 18.6002C10.0522 19.3306 9.16087 19.748 8.42609 19.748C8.15668 19.755 7.89005 19.6921 7.65217 19.5654L7.64348 19.548ZM16.3391 19.548C16.0978 19.6837 15.8247 19.7527 15.5478 19.748C14.813 19.748 13.9217 19.3132 12.9783 18.6002C13.5895 17.989 14.1548 17.3336 14.6696 16.6393C15.5235 16.5373 16.3691 16.3745 17.2 16.1524C17.4348 17.8263 17.1739 19.0871 16.3478 19.5654L16.3391 19.548ZM18.1739 14.4611C17.9512 13.629 17.6693 12.8139 17.3304 12.0219C17.6789 11.228 17.9695 10.4099 18.2 9.5741C19.7478 10.2002 20.7043 11.0654 20.7043 12.0132C20.7043 12.9611 19.7348 13.8698 18.1826 14.4784L18.1739 14.4611Z" fill="white"/>
</mask>
<g mask="url(#mask0)">
<rect width="24" height="24" fill="#363B48"/>
</g>
</svg>
