<svg width="24" height="24" viewBox="0 0 24 24" fill="none" xmlns="http://www.w3.org/2000/svg">
<mask id="mask0" mask-type="alpha" maskUnits="userSpaceOnUse" x="2" y="2" width="20" height="20">
<path fill-rule="evenodd" clip-rule="evenodd" d="M2 12C2 6.47715 6.47715 2 12 2C17.5228 2 22 6.47715 22 12C22 17.5228 17.5228 22 12 22C6.47715 22 2 17.5228 2 12ZM3.42857 12C3.42857 16.7339 7.26613 20.5714 12 20.5714C16.7339 20.5714 20.5714 16.7339 20.5714 12C20.5714 7.26613 16.7339 3.42857 12 3.42857C7.26613 3.42857 3.42857 7.26613 3.42857 12ZM12.2381 6.04762C11.8436 6.04762 11.5238 6.36742 11.5238 6.7619V13.4286C11.5238 13.8231 11.8436 14.1429 12.2381 14.1429C12.6326 14.1429 12.9524 13.8231 12.9524 13.4286V6.7619C12.9524 6.36742 12.6326 6.04762 12.2381 6.04762ZM12.2381 16.7619C12.6326 16.7619 12.9524 16.4421 12.9524 16.0476C12.9524 15.6531 12.6326 15.3333 12.2381 15.3333C11.8436 15.3333 11.5238 15.6531 11.5238 16.0476C11.5238 16.4421 11.8436 16.7619 12.2381 16.7619Z" fill="white"/>
</mask>
<g mask="url(#mask0)">
<rect width="24" height="24" fill="#0057A1"/>
</g>
</svg>
