<svg width="24" height="24" viewBox="0 0 24 24" fill="none" xmlns="http://www.w3.org/2000/svg">
<mask id="mask0" mask-type="alpha" maskUnits="userSpaceOnUse" x="4" y="2" width="17" height="20">
<path fill-rule="evenodd" clip-rule="evenodd" d="M18.9545 2H8.16364C7.8809 2.0021 7.60079 2.05443 7.33636 2.15455L7.18182 2L6.55455 2.62727L6.45455 2.72727L4.84545 4.33636C4.72732 4.43284 4.6192 4.54096 4.52273 4.65909L4 5.18182L4.17273 5.23182C4.05997 5.50427 4.0013 5.79605 4 6.09091V19.7273C4 20.9825 5.01753 22 6.27273 22H15.8182C16.2041 21.9977 16.583 21.8959 16.9182 21.7045L17.25 21.9818L18.8909 20.0136C19.7692 19.6834 20.3542 18.8474 20.3636 17.9091V2H18.9545ZM19 3.36364V17.9091C18.9953 18.1601 18.8826 18.397 18.6909 18.5591L18.4773 18.3818L18.1227 18.8091H18.0909V3.80909H7.32273C7.50951 3.52662 7.825 3.35608 8.16364 3.35455L19 3.36364ZM11.7273 5.18182H13.5455V9.21818L12.4909 8.37273L11.7273 9.07727V5.18182ZM6.27273 20.6364C5.77065 20.6364 5.36364 20.2294 5.36364 19.7273V6.09091C5.36364 5.58883 5.77065 5.18182 6.27273 5.18182H10.3636V12.1955L12.5545 10.1727L14.9091 12.0545V5.18182H16.7273V19.7273C16.7273 20.2294 16.3203 20.6364 15.8182 20.6364H6.27273Z" fill="white"/>
</mask>
<g mask="url(#mask0)">
<rect width="24" height="24" fill="#363B48"/>
</g>
</svg>
