<svg width="24" height="24" viewBox="0 0 24 24" fill="none" xmlns="http://www.w3.org/2000/svg">
<mask id="mask0" mask-type="alpha" maskUnits="userSpaceOnUse" x="2" y="2" width="20" height="20">
<path fill-rule="evenodd" clip-rule="evenodd" d="M12 2C6.47715 2 2 6.47715 2 12C2 17.5228 6.47715 22 12 22C17.5228 22 22 17.5228 22 12C22 6.47715 17.5228 2 12 2ZM12 20.6364C7.23027 20.6364 3.36364 16.7697 3.36364 12C3.36364 7.23027 7.23027 3.36364 12 3.36364C16.7697 3.36364 20.6364 7.23027 20.6364 12C20.6364 14.2905 19.7265 16.4872 18.1068 18.1068C16.4872 19.7265 14.2905 20.6364 12 20.6364ZM14.5 8.36364H9.5C9.12344 8.36364 8.81818 8.6689 8.81818 9.04545V15.5227C8.818 15.7928 8.97725 16.0375 9.22424 16.1467C9.47123 16.256 9.75942 16.2091 9.95909 16.0273L12 14.1591L14.0409 16.0273C14.2406 16.2091 14.5288 16.256 14.7758 16.1467C15.0228 16.0375 15.182 15.7928 15.1818 15.5227V9.04545C15.1818 8.6689 14.8766 8.36364 14.5 8.36364ZM13.8182 13.9727L12.4545 12.7273C12.1957 12.4958 11.8043 12.4958 11.5455 12.7273L10.1818 13.9727V9.72727H13.8182V13.9727Z" fill="white"/>
</mask>
<g mask="url(#mask0)">
<rect width="24" height="24" fill="#363B48"/>
</g>
</svg>
