<svg width="24" height="24" viewBox="0 0 24 24" fill="none" xmlns="http://www.w3.org/2000/svg">
<mask id="mask0" mask-type="alpha" maskUnits="userSpaceOnUse" x="3" y="2" width="19" height="20">
<path fill-rule="evenodd" clip-rule="evenodd" d="M21.4867 9.29914C21.4929 7.41655 20.3068 5.73632 18.5309 5.1117C18.5309 5.03644 18.5309 4.96118 18.5309 4.88591C18.5256 4.10654 18.2073 3.36199 17.6476 2.81963C17.0879 2.27727 16.3337 1.98262 15.5545 2.00192C13.1837 2.00192 12.5268 2.7614 12.1317 3.49523C12.0496 3.42852 11.947 3.33102 11.87 3.25404C11.1217 2.42446 10.0462 1.96645 8.92954 2.00192C8.14403 1.98813 7.38599 2.29092 6.82613 2.84209C6.26628 3.39325 5.95168 4.14646 5.95318 4.9321C5.95318 4.99881 5.95318 5.07065 5.95318 5.13736C4.64295 5.60252 3.62679 6.65535 3.20836 7.98124C2.78992 9.30713 3.01767 10.7525 3.82354 11.8855C3.01571 13.0204 2.78681 14.4685 3.20519 15.7972C3.62358 17.126 4.64084 18.1817 5.95318 18.649C5.95318 18.7243 5.95318 18.7996 5.95318 18.8748C5.92706 20.5539 7.25119 21.9442 8.92954 22C9.58449 21.9461 10.2033 21.6773 10.6897 21.2354C10.7769 21.1738 10.8847 21.0917 10.9514 21.0455H13.5172C13.5891 21.0917 13.6969 21.1738 13.779 21.2354C14.2656 21.6769 14.8843 21.9457 15.5391 22C17.1895 21.945 18.5026 20.5979 18.5155 18.9467C18.5155 18.8594 18.5155 18.7671 18.5155 18.6798C20.2821 18.0311 21.4603 16.3538 21.4713 14.4719C21.4704 13.5521 21.1834 12.6554 20.6503 11.906C21.1968 11.1469 21.4895 10.2345 21.4867 9.29914V9.29914ZM10.8488 19.506C10.4425 19.5524 10.0632 19.7329 9.77113 20.0192C9.53584 20.2375 9.25028 20.3944 8.9398 20.4759C8.12147 20.4012 7.49687 19.7119 7.50294 18.8902C7.5037 18.7146 7.53675 18.5407 7.60044 18.377C7.60044 18.377 7.60044 18.3463 7.60044 18.336C7.61137 18.3024 7.61994 18.2681 7.6261 18.2334C7.6261 18.2334 7.6261 18.1872 7.6261 18.1615C7.6261 18.1359 7.6261 18.1205 7.6261 18.0999C7.6261 18.0794 7.6261 18.0435 7.65689 18.0178C7.92887 17.7818 8.85256 17.7151 9.55047 17.8074C9.97559 17.8627 10.365 17.5629 10.4203 17.1378C10.4756 16.7126 10.1757 16.3232 9.75061 16.2679C9.39652 16.2217 7.57478 16.0267 6.64082 16.8478C6.53958 16.9391 6.44996 17.0425 6.37397 17.1557C5.49211 16.8102 4.83612 16.0537 4.61896 15.1317C4.40179 14.2098 4.65114 13.24 5.28606 12.5372C5.71712 12.3679 7.11293 11.9163 8.00071 12.8092C8.304 13.0918 8.77663 13.0835 9.06976 12.7903C9.36289 12.4972 9.37123 12.0246 9.08862 11.7213C7.74413 10.3768 5.96344 10.695 5.05514 10.9875C4.51246 10.2239 4.37675 9.24357 4.69161 8.36136C5.00647 7.47914 5.73223 6.80623 6.63569 6.55883C7.33872 7.48766 8.91414 7.86227 9.24257 7.92899C9.65919 8.01684 10.0681 7.75033 10.156 7.33371C10.2439 6.9171 9.97735 6.50814 9.56073 6.42028C8.98086 6.29712 8.02124 5.93277 7.84163 5.59408C7.84163 5.56842 7.84163 5.55816 7.84163 5.50684C7.95853 5.16843 7.82666 4.7941 7.52346 4.60367C7.6988 3.9845 8.2708 3.56235 8.91414 3.57734C9.62992 3.54334 10.3206 3.84505 10.7821 4.39327C10.982 4.6011 11.2079 4.78221 11.4543 4.9321V19.506H10.8488ZM18.1203 17.1814C18.0411 17.06 17.9462 16.9496 17.8381 16.8529C16.9041 16.0319 15.0824 16.2269 14.7283 16.2731C14.4533 16.3088 14.2183 16.4886 14.1117 16.7446C14.0052 17.0006 14.0433 17.2941 14.2118 17.5144C14.3803 17.7346 14.6534 17.8483 14.9285 17.8126C15.5186 17.7356 16.5295 17.7664 16.822 18.023C16.822 18.023 16.8528 18.0538 16.8528 18.1051C16.8528 18.1564 16.8528 18.1359 16.8528 18.1513C16.8522 18.2422 16.8679 18.3326 16.899 18.4181C16.9625 18.5943 16.9955 18.7799 16.9965 18.9672C17.0055 19.7772 16.3691 20.4478 15.5596 20.481C15.2474 20.4001 14.9601 20.2432 14.7232 20.0243C14.4313 19.7378 14.052 19.5571 13.6455 19.5111H13.0195V4.84486C13.2097 4.68401 13.3636 4.48461 13.4711 4.25985C13.6404 3.93655 13.8559 3.53628 15.5596 3.53628C16.2278 3.50469 16.8224 3.95662 16.9709 4.6088C16.6705 4.79658 16.537 5.16514 16.6476 5.50171C16.6476 5.55303 16.6476 5.55816 16.6476 5.58895C16.4679 5.89685 15.6212 6.25093 14.9131 6.38436C14.4879 6.42403 14.1755 6.80083 14.2152 7.22595C14.2548 7.65107 14.6316 7.96353 15.0567 7.92385H15.2004C15.534 7.86227 17.1659 7.50819 17.8689 6.5537C18.7628 6.81938 19.4739 7.49947 19.7791 8.38062C20.0844 9.26177 19.9464 10.236 19.4084 10.9977C18.5001 10.7052 16.7194 10.3871 15.3749 11.7315C15.169 11.9234 15.0842 12.2124 15.1538 12.4852C15.2235 12.7579 15.4365 12.9709 15.7092 13.0405C15.9819 13.1102 16.2709 13.0254 16.4628 12.8195C17.3506 11.9317 18.7361 12.373 19.1723 12.5475C19.6606 13.0816 19.9315 13.779 19.9318 14.5026C19.9159 15.6768 19.2041 16.7294 18.1203 17.1814V17.1814Z" fill="white"/>
</mask>
<g mask="url(#mask0)">
<rect width="24" height="24" fill="#0057A1"/>
</g>
</svg>
