<svg width="24" height="24" viewBox="0 0 24 24" fill="none" xmlns="http://www.w3.org/2000/svg">
<mask id="mask0" mask-type="alpha" maskUnits="userSpaceOnUse" x="2" y="3" width="20" height="18">
<path fill-rule="evenodd" clip-rule="evenodd" d="M20.5714 5.85714H16.2857V4.42857C16.2857 3.63959 15.6461 3 14.8571 3H9.14286C8.35388 3 7.71429 3.63959 7.71429 4.42857V5.85714H3.42857C2.63959 5.85714 2 6.49674 2 7.28571V19.1905C2 19.9795 2.63959 20.619 3.42857 20.619H20.5714C21.3604 20.619 22 19.9795 22 19.1905V7.28571C22 6.49674 21.3604 5.85714 20.5714 5.85714V5.85714ZM9.14286 4.42857H14.8571V5.85714H9.14286V4.42857ZM20.5714 7.28571V10.8619C20.461 10.8606 20.3517 10.885 20.2524 10.9333C18.3397 11.82 16.3379 12.5 14.281 12.9619C14.0689 12.4124 13.5414 12.0494 12.9524 12.0476H11.0476C10.4437 12.0493 9.90607 12.4306 9.70476 13C7.61576 12.5583 5.58819 11.8643 3.66667 10.9333C3.58482 10.8928 3.49587 10.8685 3.40476 10.8619V7.28571H20.5714ZM12.9524 13.4762V14.9048H11.0476V13.4762H12.9524ZM3.42857 19.1905V12.4238C5.40664 13.3394 7.48392 14.0233 9.61905 14.4619V14.9048C9.61905 15.6937 10.2586 16.3333 11.0476 16.3333H12.9524C13.7414 16.3333 14.381 15.6937 14.381 14.9048V14.3905C16.5263 13.9721 18.6076 13.274 20.5714 12.3143V19.1905H3.42857Z" fill="white"/>
</mask>
<g mask="url(#mask0)">
<rect width="24" height="24" fill="#0057A1"/>
</g>
</svg>
