<svg width="24" height="24" viewBox="0 0 24 24" fill="none" xmlns="http://www.w3.org/2000/svg">
<mask id="mask0" mask-type="alpha" maskUnits="userSpaceOnUse" x="2" y="4" width="20" height="16">
<path fill-rule="evenodd" clip-rule="evenodd" d="M20.6364 6.72727H17.2773L15.8636 4.60909C15.6108 4.2285 15.1842 3.99983 14.7273 4H9.27273C8.81582 3.99983 8.38919 4.2285 8.13636 4.60909L6.72273 6.72727H6.54545V6.27273C6.54545 5.51961 5.93493 4.90909 5.18182 4.90909H4.72727C3.97416 4.90909 3.36364 5.51961 3.36364 6.27273V6.72727C2.61052 6.72727 2 7.33779 2 8.09091V18.0909C2 18.844 2.61052 19.4545 3.36364 19.4545H20.6364C21.3895 19.4545 22 18.844 22 18.0909V8.09091C22 7.33779 21.3895 6.72727 20.6364 6.72727ZM7.45455 12.6364C7.45455 10.126 9.48961 8.09091 12 8.09091C14.5104 8.09091 16.5455 10.126 16.5455 12.6364C16.5455 15.1467 14.5104 17.1818 12 17.1818C9.48961 17.1818 7.45455 15.1467 7.45455 12.6364ZM8.81818 12.6364C8.81818 14.3936 10.2427 15.8182 12 15.8182C13.7573 15.8182 15.1818 14.3936 15.1818 12.6364C15.1818 10.8791 13.7573 9.45455 12 9.45455C10.2427 9.45455 8.81818 10.8791 8.81818 12.6364ZM5.18182 6.27273H4.72727V6.72727H5.18182V6.27273ZM20.6364 18.0909H3.36364V8.09091H7.45455L9.27273 5.36364H14.7273L16.5455 8.09091H20.6364V18.0909ZM18.1364 10.8182C18.5129 10.8182 18.8182 10.5129 18.8182 10.1364C18.8182 9.75981 18.5129 9.45455 18.1364 9.45455C17.7598 9.45455 17.4545 9.75981 17.4545 10.1364C17.4545 10.5129 17.7598 10.8182 18.1364 10.8182Z" fill="white"/>
</mask>
<g mask="url(#mask0)">
<rect width="24" height="24" fill="#0057A1"/>
</g>
</svg>
