<svg width="24" height="24" viewBox="0 0 24 24" fill="none" xmlns="http://www.w3.org/2000/svg">
<mask id="mask0" mask-type="alpha" maskUnits="userSpaceOnUse" x="2" y="3" width="20" height="19">
<path fill-rule="evenodd" clip-rule="evenodd" d="M17.9091 3H6.09091C3.83156 3 2 4.83156 2 7.09091V14.3636C1.99893 16.2736 3.31962 17.9301 5.18182 18.3545V19.8182C5.18111 20.3563 5.49689 20.8444 5.98794 21.0644C6.47899 21.2844 7.05349 21.1951 7.45455 20.8364L10.1364 18.4545H17.9091C20.1684 18.4545 22 16.623 22 14.3636V7.09091C22 4.83156 20.1684 3 17.9091 3ZM17.9091 4.36364C19.4153 4.36364 20.6364 5.58468 20.6364 7.09091V14.3636C20.6364 15.8699 19.4153 17.0909 17.9091 17.0909H9.61364L6.54546 19.8182V17.0909H6.09091C4.58468 17.0909 3.36364 15.8699 3.36364 14.3636V7.09091C3.36364 5.58468 4.58468 4.36364 6.09091 4.36364H17.9091ZM12 11.4091C12.3766 11.4091 12.6818 11.1038 12.6818 10.7273C12.6818 10.3507 12.3766 10.0455 12 10.0455C11.6234 10.0455 11.3182 10.3507 11.3182 10.7273C11.3182 11.1038 11.6234 11.4091 12 11.4091ZM17.2273 10.7273C17.2273 11.1038 16.922 11.4091 16.5455 11.4091C16.1689 11.4091 15.8636 11.1038 15.8636 10.7273C15.8636 10.3507 16.1689 10.0455 16.5455 10.0455C16.922 10.0455 17.2273 10.3507 17.2273 10.7273ZM7.50909 11.4091C7.88565 11.4091 8.19091 11.1038 8.19091 10.7273C8.19091 10.3507 7.88565 10.0455 7.50909 10.0455C7.13253 10.0455 6.82727 10.3507 6.82727 10.7273C6.82727 11.1038 7.13253 11.4091 7.50909 11.4091Z" fill="white"/>
</mask>
<g mask="url(#mask0)">
<rect width="24" height="24" fill="#363B48"/>
</g>
</svg>
