<svg width="24" height="24" viewBox="0 0 24 24" fill="none" xmlns="http://www.w3.org/2000/svg">
<mask id="mask0" mask-type="alpha" maskUnits="userSpaceOnUse" x="2" y="6" width="20" height="13">
<path fill-rule="evenodd" clip-rule="evenodd" d="M8.5 11.0013H16.5C16.9142 11.0013 17.25 10.6655 17.25 10.2513C17.25 9.83712 16.9142 9.50133 16.5 9.50133H8.665C8.57803 9.50143 8.49175 9.51666 8.41 9.54633C8.17 9.63133 6 10.2913 6 12.0013C6 13.4613 7.61 14.3063 8.5 14.5013H8.645H16.015C16.135 14.5013 18.965 14.6013 20.6 13.0313C21.4378 12.2381 21.939 11.1535 22 10.0013C22 8.79633 21.36 8.06133 20.585 7.32133C19.085 5.90633 16.745 6.00133 16.68 6.00133H8.03C5.86 6.00133 2 7.38633 2 11.5013C2 13.5663 2.355 15.0863 3.55 16.2513C4.7701 17.3581 6.35282 17.9805 8 18.0013H18C18.4142 18.0013 18.75 17.6655 18.75 17.2513C18.75 16.8371 18.4142 16.5013 18 16.5013H8.03C6.76251 16.4892 5.54228 16.0186 4.595 15.1763C3.7 14.3063 3.5 13.1463 3.5 11.5013C3.5 7.82133 7.875 7.50133 8.05 7.50133H16.72C16.72 7.50133 18.545 7.44633 19.555 8.40633C20.025 8.85633 20.505 9.20633 20.505 10.0013C20.447 10.7395 20.1217 11.4311 19.59 11.9463C18.42 13.0713 16.125 13.0013 16.09 13.0013H8.5C8.18 12.9213 7.5 12.4663 7.5 12.0013C7.5 11.5363 8.045 11.1963 8.5 11.0013Z" fill="white"/>
</mask>
<g mask="url(#mask0)">
<rect width="24" height="24" fill="#363B48"/>
</g>
</svg>
