<svg width="24" height="24" viewBox="0 0 24 24" fill="none" xmlns="http://www.w3.org/2000/svg">
<mask id="mask0" mask-type="alpha" maskUnits="userSpaceOnUse" x="2" y="2" width="20" height="20">
<path fill-rule="evenodd" clip-rule="evenodd" d="M12 2C6.47715 2 2 6.47715 2 12C2 17.5228 6.47715 22 12 22C17.5228 22 22 17.5228 22 12C22 6.47715 17.5228 2 12 2ZM12 20.6364C7.23027 20.6364 3.36364 16.7697 3.36364 12C3.36364 7.23027 7.23027 3.36364 12 3.36364C16.7697 3.36364 20.6364 7.23027 20.6364 12C20.6364 14.2905 19.7265 16.4872 18.1068 18.1068C16.4872 19.7265 14.2905 20.6364 12 20.6364ZM15.6545 8.32727C15.3883 8.06141 14.9571 8.06141 14.6909 8.32727L12.1045 11.0182L9.29091 8.29091C9.11717 8.11332 8.86059 8.04429 8.6212 8.11073C8.38181 8.17717 8.19751 8.36857 8.14014 8.61029C8.08278 8.85202 8.16144 9.10581 8.34545 9.27273L11.1409 11.9636L8.34545 14.6545C8.16144 14.8215 8.08278 15.0753 8.14014 15.317C8.19751 15.5587 8.38181 15.7501 8.6212 15.8165C8.86059 15.883 9.11717 15.814 9.29091 15.6364L12.1045 12.9091L14.6909 15.6C14.8578 15.784 15.1116 15.8627 15.3533 15.8053C15.5951 15.7479 15.7865 15.5636 15.8529 15.3243C15.9193 15.0849 15.8503 14.8283 15.6727 14.6545L13.0682 11.9273L15.6727 9.2C15.8781 8.94283 15.8704 8.57567 15.6545 8.32727Z" fill="white"/>
</mask>
<g mask="url(#mask0)">
<rect width="24" height="24" fill="#363B48"/>
</g>
</svg>
