<svg width="24" height="24" viewBox="0 0 24 24" fill="none" xmlns="http://www.w3.org/2000/svg">
<mask id="mask0" mask-type="alpha" maskUnits="userSpaceOnUse" x="5" y="2" width="14" height="20">
<path fill-rule="evenodd" clip-rule="evenodd" d="M17.1329 7.62013V6.72139C17.1329 5.97686 16.5294 5.37329 15.7848 5.37329H12.6393L13.1515 4.09259L15.1287 3.30171C15.475 3.16397 15.644 2.77165 15.5062 2.42544C15.3685 2.07923 14.9762 1.91023 14.6299 2.04797L12.3831 2.94671C12.2107 3.01522 12.0742 3.15177 12.0056 3.32417L11.1878 5.37329H7.69621C6.95167 5.37329 6.3481 5.97686 6.3481 6.72139V7.62013C5.60357 7.62013 5 8.2237 5 8.96823V10.7657C5 11.5102 5.60357 12.1138 6.3481 12.1138C6.34258 12.1841 6.34258 12.2547 6.3481 12.325L7.69621 20.863C7.80102 21.5241 8.37501 22.0082 9.04431 21.9999H14.4367C15.106 22.0082 15.68 21.5241 15.7848 20.863L17.1329 12.325C17.1385 12.2547 17.1385 12.1841 17.1329 12.1138C17.8775 12.1138 18.481 11.5102 18.481 10.7657V8.96823C18.481 8.2237 17.8775 7.62013 17.1329 7.62013ZM7.69621 6.72139H15.7848V7.62013H7.69621V6.72139ZM14.4367 20.6518H9.04431L7.69621 12.1138H15.7848L14.4367 20.6518ZM17.1329 10.7657H6.3481V8.96823H17.1329V10.7657Z" fill="white"/>
</mask>
<g mask="url(#mask0)">
<rect width="24" height="24" fill="#363B48"/>
</g>
</svg>
