<svg width="24" height="24" viewBox="0 0 24 24" fill="none" xmlns="http://www.w3.org/2000/svg">
<mask id="mask0" mask-type="alpha" maskUnits="userSpaceOnUse" x="2" y="2" width="20" height="20">
<path fill-rule="evenodd" clip-rule="evenodd" d="M21.524 12.5018C21.5173 11.3896 20.7766 10.4156 19.7066 10.1122C18.6366 9.80884 17.4948 10.249 16.9054 11.1922L13.5964 10.3524C13.47 9.06859 12.3872 8.09191 11.0972 8.09812C10.6728 8.10066 10.2562 8.21256 9.88757 8.42302L6.74854 5.5739C6.91184 5.23911 6.99728 4.87172 6.99846 4.49923C6.99846 3.11894 5.87952 2 4.49923 2C3.11894 2 2 3.11894 2 4.49923C2 5.87952 3.11894 6.99846 4.49923 6.99846C4.9275 6.99612 5.3478 6.88244 5.71885 6.66856L8.85289 9.50769C8.68466 9.84469 8.59575 10.2157 8.59297 10.5924C8.59149 11.5874 9.18049 12.4886 10.0925 12.8866L9.92256 15.066C8.83048 15.3131 8.036 16.2563 7.97817 17.3745C7.92034 18.4927 8.61328 19.5129 9.67405 19.8713C10.7348 20.2297 11.9045 19.8389 12.5368 18.9148L14.4862 19.5146C14.4929 20.7102 15.3455 21.7336 16.5202 21.9561C17.695 22.1786 18.8628 21.5379 19.3063 20.4276C19.7498 19.3172 19.3447 18.0483 18.34 17.4003L19.0398 14.991C20.4103 14.9828 21.5185 13.8723 21.524 12.5018V12.5018ZM19.0248 11.5021C19.5769 11.5021 20.0244 11.9497 20.0244 12.5018C20.0244 13.0539 19.5769 13.5015 19.0248 13.5015C18.4726 13.5015 18.0251 13.0539 18.0251 12.5018C18.0251 11.9497 18.4726 11.5021 19.0248 11.5021ZM14.966 18.09L13.0266 17.4902C13.0211 16.4758 12.4029 15.5653 11.4621 15.1859L11.627 13.0466C12.3325 12.8976 12.9393 12.4512 13.2915 11.822L16.5405 12.6467C16.584 13.4281 16.991 14.1441 17.6402 14.5811L16.9354 17.0104C16.1451 17.0384 15.4147 17.4388 14.966 18.09V18.09ZM3.52953 4.50423C3.52953 3.95211 3.97711 3.50454 4.52922 3.50454C5.08134 3.50454 5.52891 3.95211 5.52891 4.50423C5.52891 5.05634 5.08134 5.50392 4.52922 5.50392C3.97711 5.50392 3.52953 5.05634 3.52953 4.50423ZM11.1222 9.59766C11.6743 9.59766 12.1219 10.0452 12.1219 10.5974C12.1219 11.1495 11.6743 11.597 11.1222 11.597C10.5701 11.597 10.1225 11.1495 10.1225 10.5974C10.1225 10.0452 10.5701 9.59766 11.1222 9.59766ZM10.5274 18.4999C9.97526 18.4999 9.52768 18.0523 9.52768 17.5002C9.52768 16.9481 9.97526 16.5005 10.5274 16.5005C11.0795 16.5005 11.5271 16.9481 11.5271 17.5002C11.5271 18.0523 11.0795 18.4999 10.5274 18.4999ZM17.0254 20.4993C16.4733 20.4993 16.0257 20.0517 16.0257 19.4996C16.0257 18.9475 16.4733 18.4999 17.0254 18.4999C17.5775 18.4999 18.0251 18.9475 18.0251 19.4996C18.0251 20.0517 17.5775 20.4993 17.0254 20.4993Z" fill="white"/>
</mask>
<g mask="url(#mask0)">
<rect width="24" height="24" fill="#0057A1"/>
</g>
</svg>
