<svg width="24" height="24" viewBox="0 0 24 24" fill="none" xmlns="http://www.w3.org/2000/svg">
<mask id="mask0" mask-type="alpha" maskUnits="userSpaceOnUse" x="2" y="2" width="20" height="20">
<path fill-rule="evenodd" clip-rule="evenodd" d="M19.6433 14.8372C20.1809 14.6054 20.8065 14.7425 21.1977 15.1781C21.5873 15.6146 21.655 16.251 21.3659 16.7597C19.5562 19.9847 16.1513 21.9866 12.4533 22C6.69035 22 2 17.5142 2 12.0012C2 8.01985 4.89511 3.76582 8.73556 2.11147C9.27306 1.87973 9.8985 2.01692 10.2897 2.45234C10.6808 2.88777 10.7504 3.52429 10.4626 4.03397L10.1854 4.52027L10.1672 4.55207C9.56576 5.60101 8.82191 6.89843 8.82191 7.91077C8.92945 12.1326 12.3265 15.5296 16.5483 15.6371C17.6223 15.5753 18.6738 15.3036 19.6433 14.8372ZM3.36802 11.9966C3.36802 16.8824 7.57206 20.632 12.4578 20.632C15.6637 20.6185 18.6148 18.8826 20.1842 16.0871C19.0431 16.6243 17.8079 16.9331 16.5483 16.9961C11.5677 16.9017 7.55282 12.8868 7.45844 7.90623C7.45844 6.51674 8.30869 5.04257 9.00519 3.83498C9.09922 3.67194 9.19045 3.51377 9.2764 3.36132C6.13132 4.72479 3.36802 8.36072 3.36802 11.9966ZM14.2213 9.19699L14.5031 7.56082L13.3123 6.40186C13.1261 6.22086 13.0589 5.94979 13.139 5.70277C13.2191 5.45575 13.4325 5.27568 13.6895 5.23837L15.3302 4.99749L16.0665 3.5113C16.1814 3.27865 16.4183 3.13137 16.6778 3.13137C16.9373 3.13137 17.1742 3.27865 17.2891 3.5113L18.0254 4.99749L19.6661 5.23837C19.9231 5.27568 20.1365 5.45575 20.2166 5.70277C20.2967 5.94979 20.2295 6.22086 20.0433 6.40186L18.8571 7.56082L19.1389 9.19699C19.1829 9.45312 19.0775 9.71202 18.8671 9.86454C18.6566 10.0171 18.3778 10.0367 18.1481 9.91508L16.6801 9.14245L15.2121 9.91508C14.9824 10.0367 14.7035 10.0171 14.4931 9.86454C14.2826 9.71202 14.1772 9.45312 14.2213 9.19699ZM15.8665 6.29733C16.0886 6.2652 16.2807 6.12583 16.3801 5.92465L16.6619 5.35653L16.9437 5.92465C17.0431 6.12583 17.2351 6.2652 17.4572 6.29733L18.0844 6.38823L17.6299 6.84272C17.4692 6.99969 17.3961 7.22581 17.4345 7.44719L17.5436 8.07439L16.98 7.77897C16.7807 7.67471 16.543 7.67471 16.3437 7.77897L15.7802 8.07439L15.8892 7.44719C15.9277 7.22581 15.8546 6.99969 15.6938 6.84272L15.2393 6.38823L15.8665 6.29733Z" fill="white"/>
</mask>
<g mask="url(#mask0)">
<rect width="24" height="24" fill="#0057A1"/>
</g>
</svg>
