<svg width="24" height="24" viewBox="0 0 24 24" fill="none" xmlns="http://www.w3.org/2000/svg">
<mask id="mask0" mask-type="alpha" maskUnits="userSpaceOnUse" x="2" y="3" width="20" height="18">
<path fill-rule="evenodd" clip-rule="evenodd" d="M20.6364 8.45455H16.5455V4.36364C16.5455 3.61052 15.9349 3 15.1818 3H3.36364C2.61052 3 2 3.61052 2 4.36364V11.6364C2 12.3895 2.61052 13 3.36364 13H3.62273L3.46364 13.4045C3.24879 13.9402 3.39441 14.5531 3.82721 14.9348C4.26001 15.3166 4.88628 15.3846 5.39091 15.1045L7.45455 13.9591V17.0955C7.45455 17.8486 8.06507 18.4591 8.81818 18.4591H14.8273L18.6091 20.5591C19.1137 20.8391 19.74 20.7711 20.1728 20.3894C20.6056 20.0076 20.7512 19.3947 20.5364 18.8591L20.3773 18.4545H20.6364C21.3895 18.4545 22 17.844 22 17.0909V9.81818C22 9.06507 21.3895 8.45455 20.6364 8.45455ZM7.45455 9.81818V12.3955L4.72727 13.9091L5.63636 11.6364H3.36364V4.36364H15.1818V8.45455H8.81818C8.06507 8.45455 7.45455 9.06507 7.45455 9.81818ZM20.6364 17.0909H18.3636L19.2727 19.3636L15.1818 17.0909H8.81818V9.81818H20.6364V17.0909ZM10.6364 12.5455H18.8182C19.1947 12.5455 19.5 12.2402 19.5 11.8636C19.5 11.4871 19.1947 11.1818 18.8182 11.1818H10.6364C10.2598 11.1818 9.95455 11.4871 9.95455 11.8636C9.95455 12.2402 10.2598 12.5455 10.6364 12.5455ZM10.6364 15.2727H18.8182C19.1947 15.2727 19.5 14.9675 19.5 14.5909C19.5 14.2144 19.1947 13.9091 18.8182 13.9091H10.6364C10.2598 13.9091 9.95455 14.2144 9.95455 14.5909C9.95455 14.9675 10.2598 15.2727 10.6364 15.2727Z" fill="white"/>
</mask>
<g mask="url(#mask0)">
<rect width="24" height="24" fill="#363B48"/>
</g>
</svg>
