<svg width="24" height="24" viewBox="0 0 24 24" fill="none" xmlns="http://www.w3.org/2000/svg">
<mask id="mask0" mask-type="alpha" maskUnits="userSpaceOnUse" x="3" y="2" width="19" height="20">
<path fill-rule="evenodd" clip-rule="evenodd" d="M7.28572 12.9524H16.8095C17.204 12.9524 17.5238 13.2722 17.5238 13.6667C17.5238 14.0612 17.204 14.381 16.8095 14.381H7.28572C6.89123 14.381 6.57143 14.0612 6.57143 13.6667C6.57143 13.2722 6.89123 12.9524 7.28572 12.9524ZM7.28572 16.2857H15.381C15.7754 16.2857 16.0952 16.6055 16.0952 17C16.0952 17.3945 15.7754 17.7143 15.381 17.7143H7.28572C6.89123 17.7143 6.57143 17.3945 6.57143 17C6.57143 16.6055 6.89123 16.2857 7.28572 16.2857ZM13.4762 11.0476H16.3333C17.1223 11.0476 17.7619 10.408 17.7619 9.61905V6.7619C17.7619 5.97293 17.1223 5.33333 16.3333 5.33333H13.4762C12.6872 5.33333 12.0476 5.97293 12.0476 6.7619V9.61905C12.0476 10.408 12.6872 11.0476 13.4762 11.0476ZM13.4762 6.7619H16.3333V9.61905H13.4762V6.7619ZM19.6667 2H8.71429C8.22147 2.00168 7.76431 2.25725 7.50476 2.67619L3.69524 6.48571C3.26321 6.74413 2.99909 7.21087 3 7.71429V20.5714C3 21.3604 3.6396 22 4.42857 22H19.6667C20.4556 22 21.0952 21.3604 21.0952 20.5714V3.42857C21.0952 2.63959 20.4556 2 19.6667 2ZM7.28572 4.91429V6.28571H5.91429L7.28572 4.91429ZM19.6667 20.5714H4.42857V7.7619H4.45715L4.48572 7.73333H8.71429V3.50476L8.74286 3.47619V3.44762H19.6476L19.6667 20.5714Z" fill="white"/>
</mask>
<g mask="url(#mask0)">
<rect width="24" height="24" fill="#0057A1"/>
</g>
</svg>
