<svg width="32" height="32" viewBox="0 0 32 32" fill="none" xmlns="http://www.w3.org/2000/svg">
<path fill-rule="evenodd" clip-rule="evenodd" d="M16 25.6368C19.6207 27.2653 23.1555 27.2293 25.1924 25.1924C26.3623 24.0224 26.8722 22.3583 26.7856 20.4675C28.1838 19.1918 29 17.6546 29 16C29 14.3454 28.1838 12.8082 26.7856 11.5325C26.8722 9.64171 26.3623 7.97757 25.1924 6.80762C23.1555 4.77074 19.6207 4.73468 16 6.36324C12.3793 4.73468 8.84451 4.77073 6.80762 6.80762C5.63768 7.97756 5.12783 9.6417 5.21437 11.5324C3.81621 12.8082 3 14.3454 3 16C3 17.6546 3.81621 19.1918 5.21436 20.4676C5.12782 22.3583 5.63766 24.0224 6.80761 25.1924C8.8445 27.2293 12.3793 27.2653 16 25.6368Z" fill="white"/>
<path fill-rule="evenodd" clip-rule="evenodd" d="M5.01309 14.7761C5.98004 11.8345 10.6596 9.6033 16.2867 9.6033C22.6141 9.6033 27.7435 12.4245 27.7435 15.9045C27.7435 19.3846 22.6141 22.2058 16.2867 22.2058C10.6596 22.2058 5.98001 19.9745 5.01309 17.0329C4.78922 16.9936 4.57479 16.8875 4.40188 16.7146C3.95447 16.2672 3.95447 15.5418 4.40188 15.0944C4.5748 14.9215 4.78923 14.8154 5.01309 14.7761ZM5.40851 14.7757C6.38465 11.9605 10.884 9.83243 16.287 9.83243C22.4035 9.83243 27.3619 12.5596 27.3619 15.9236C27.3619 19.2877 22.4035 22.0148 16.287 22.0148C10.8609 22.0148 6.34619 19.8686 5.39618 17.0354C5.62535 16.9982 5.84541 16.8913 6.02211 16.7146C6.46953 16.2672 6.46953 15.5418 6.02211 15.0944C5.84859 14.9209 5.63323 14.8147 5.40851 14.7757Z" fill="#2A2D2D"/>
<path fill-rule="evenodd" clip-rule="evenodd" d="M24.4375 9.03428C25.8338 11.7981 24.1025 16.6847 20.1236 20.6637C15.6494 25.1378 10.0275 26.77 7.56676 24.3092C5.10596 21.8484 6.73813 16.2265 11.2123 11.7524C15.1912 7.77341 20.0779 6.04215 22.8417 7.43847C23.0278 7.30787 23.2545 7.23122 23.4991 7.23122C24.1318 7.23122 24.6447 7.74415 24.6447 8.37689C24.6447 8.6215 24.5681 8.84819 24.4375 9.03428ZM24.1585 9.3139C25.459 11.9948 23.7822 16.6811 19.9616 20.5017C15.6366 24.8267 10.2021 26.4044 7.82337 24.0257C5.44459 21.6469 7.02236 16.2124 11.3474 11.8874C15.1842 8.05057 19.8942 6.3758 22.5693 7.70735C22.4335 7.89568 22.3534 8.12694 22.3534 8.3769C22.3534 9.00963 22.8663 9.52257 23.4991 9.52257C23.7446 9.52257 23.972 9.44536 24.1585 9.3139Z" fill="#2A2D2D"/>
<path fill-rule="evenodd" clip-rule="evenodd" d="M22.8417 24.4375C20.078 25.8337 15.1913 24.1025 11.2124 20.1236C6.73828 15.6494 5.10613 10.0275 7.5669 7.56677C10.0277 5.10598 15.6496 6.73814 20.1237 11.2123C24.1027 15.1913 25.834 20.078 24.4376 22.8418C24.5681 23.0279 24.6447 23.2545 24.6447 23.4991C24.6447 24.1318 24.1318 24.6448 23.4991 24.6448C23.2545 24.6448 23.0278 24.5681 22.8417 24.4375ZM22.5621 24.1585C19.8811 25.4587 15.1951 23.7819 11.3747 19.9615C7.04969 15.6365 5.47195 10.202 7.85069 7.82329C10.2295 5.44452 15.6639 7.02228 19.989 11.3473C23.8259 15.1842 25.5007 19.8944 24.1689 22.5695C23.9805 22.4335 23.7491 22.3534 23.4991 22.3534C22.8663 22.3534 22.3534 22.8663 22.3534 23.4991C22.3534 23.7446 22.4306 23.9721 22.5621 24.1585Z" fill="#2A2D2D"/>
<path fill-rule="evenodd" clip-rule="evenodd" d="M12.4678 15.9045C12.4678 14.0063 14.0066 12.4675 15.9048 12.4675C17.8031 12.4675 19.3419 14.0063 19.3419 15.9045C19.3419 17.8028 17.8031 19.3416 15.9048 19.3416C14.0066 19.3416 12.4678 17.8028 12.4678 15.9045Z" fill="#2A2D2D"/>
</svg>
