<svg width="24" height="24" viewBox="0 0 24 24" fill="none" xmlns="http://www.w3.org/2000/svg">
<mask id="mask0" mask-type="alpha" maskUnits="userSpaceOnUse" x="2" y="2" width="20" height="20">
<path fill-rule="evenodd" clip-rule="evenodd" d="M16.4186 6.18605C17.5745 6.18605 18.5116 5.24897 18.5116 4.09302C18.5116 2.93708 17.5745 2 16.4186 2C15.2627 2 14.3256 2.93708 14.3256 4.09302C14.3281 5.24791 15.2637 6.18349 16.4186 6.18605ZM21.5349 11.7674C21.5349 11.3821 21.2225 11.0698 20.8372 11.0698C20.4519 11.0698 20.1395 11.3821 20.1395 11.7674C20.1395 12.4093 19.9116 17.814 12 17.814C3.62791 17.814 3.39535 12.7535 3.39535 12.6977C3.39535 12.1953 3.54419 7.5814 8.74419 7.5814C14.2791 7.5814 14.3256 11.107 14.3256 11.7674C14.3256 13.307 12.1767 14.5581 10.6047 14.5581C9.03256 14.5581 7.34884 13.1628 7.34884 12.2326C7.34884 11.3023 8.66512 10.3721 9.67442 10.3721C10.2788 10.3908 10.82 10.7516 11.0698 11.3023C11.0624 11.3344 11.0576 11.377 11.0521 11.4253C11.0269 11.6502 10.9875 12 10.6047 12C10.5093 12.0019 10.4141 11.9925 10.3209 11.9721C10.1956 11.6631 9.86908 11.486 9.5417 11.5494C9.21431 11.6128 8.97759 11.8991 8.97674 12.2326C8.97674 12.6326 9.31628 13.1628 10.6047 13.1628C11.1043 13.1841 11.59 12.9949 11.9436 12.6413C12.2972 12.2877 12.4864 11.802 12.4651 11.3023C12.4651 10.4605 11.4279 8.97674 9.67442 8.97674C7.99535 8.97674 5.95349 10.3721 5.95349 12.2326C5.95349 14.0279 8.33488 15.9535 10.6047 15.9535C12.7907 15.9535 15.7209 14.3116 15.7209 11.7674L15.7209 11.7599C15.7211 11.174 15.7223 6.18605 8.74419 6.18605C2.07907 6.18605 2 12.4419 2 12.6977C2 14.5581 3.79535 19.2093 12 19.2093C19.5256 19.2093 21.5349 14.6186 21.5349 11.7674ZM17.1163 4.09302C17.1163 3.70771 16.8039 3.39535 16.4186 3.39535C16.0333 3.39535 15.7209 3.70771 15.7209 4.09302C15.7209 4.47834 16.0333 4.7907 16.4186 4.7907C16.8039 4.7907 17.1163 4.47834 17.1163 4.09302ZM19.907 7.81395C19.907 8.19927 19.5946 8.51163 19.2093 8.51163C18.824 8.51163 18.5116 8.19927 18.5116 7.81395C18.5116 7.42864 18.824 7.11628 19.2093 7.11628C19.5946 7.11628 19.907 7.42864 19.907 7.81395ZM8.97674 3.39535C9.36206 3.39535 9.67442 3.08299 9.67442 2.69767C9.67442 2.31236 9.36206 2 8.97674 2C8.59143 2 8.27907 2.31236 8.27907 2.69767C8.27907 3.08299 8.59143 3.39535 8.97674 3.39535ZM6.4186 4.55814C6.4186 4.94345 6.10625 5.25581 5.72093 5.25581C5.33562 5.25581 5.02326 4.94345 5.02326 4.55814C5.02326 4.17282 5.33562 3.86047 5.72093 3.86047C6.10625 3.86047 6.4186 4.17282 6.4186 4.55814ZM19.6744 19.6744C20.0597 19.6744 20.3721 19.3621 20.3721 18.9767C20.3721 18.5914 20.0597 18.2791 19.6744 18.2791C19.2891 18.2791 18.9767 18.5914 18.9767 18.9767C18.9767 19.3621 19.2891 19.6744 19.6744 19.6744ZM3.62791 6.88372C3.62791 7.26904 3.31555 7.5814 2.93023 7.5814C2.54492 7.5814 2.23256 7.26904 2.23256 6.88372C2.23256 6.49841 2.54492 6.18605 2.93023 6.18605C3.31555 6.18605 3.62791 6.49841 3.62791 6.88372ZM11.7674 6.18605C12.1528 6.18605 12.4651 5.87369 12.4651 5.48837C12.4651 5.10306 12.1528 4.7907 11.7674 4.7907C11.3821 4.7907 11.0698 5.10306 11.0698 5.48837C11.0698 5.87369 11.3821 6.18605 11.7674 6.18605ZM5.25581 18.9767C5.25581 19.3621 4.94345 19.6744 4.55814 19.6744C4.17282 19.6744 3.86047 19.3621 3.86047 18.9767C3.86047 18.5914 4.17282 18.2791 4.55814 18.2791C4.94345 18.2791 5.25581 18.5914 5.25581 18.9767ZM9.44186 21.5349C9.82718 21.5349 10.1395 21.2225 10.1395 20.8372C10.1395 20.4519 9.82718 20.1395 9.44186 20.1395C9.05655 20.1395 8.74419 20.4519 8.74419 20.8372C8.74419 21.2225 9.05655 21.5349 9.44186 21.5349ZM15.7209 21.3023C15.7209 21.6876 15.4086 22 15.0233 22C14.6379 22 14.3256 21.6876 14.3256 21.3023C14.3256 20.917 14.6379 20.6047 15.0233 20.6047C15.4086 20.6047 15.7209 20.917 15.7209 21.3023ZM17.814 13.6279C18.1993 13.6279 18.5116 13.3155 18.5116 12.9302C18.5116 12.5449 18.1993 12.2326 17.814 12.2326C17.4286 12.2326 17.1163 12.5449 17.1163 12.9302C17.1163 13.3155 17.4286 13.6279 17.814 13.6279Z" fill="white"/>
</mask>
<g mask="url(#mask0)">
<rect width="24" height="24" fill="#363B48"/>
</g>
</svg>
