<svg width="24" height="24" viewBox="0 0 24 24" fill="none" xmlns="http://www.w3.org/2000/svg">
<mask id="mask0" mask-type="alpha" maskUnits="userSpaceOnUse" x="2" y="5" width="20" height="14">
<path fill-rule="evenodd" clip-rule="evenodd" d="M21.6317 10.7756C21.7624 10.9338 21.8142 11.1428 21.7727 11.3437C21.9236 11.5713 22.0028 11.8389 21.9999 12.1119V13.4755C22.0002 15.8977 20.1012 17.8946 17.682 18.0158C15.2629 18.1371 13.1737 16.3401 12.9318 13.9301H11.0681C10.8262 16.3401 8.73699 18.1371 6.31788 18.0158C3.89877 17.8946 1.9997 15.8977 2 13.4755V12.1119C2.00012 11.8303 2.08746 11.5556 2.25 11.3255C2.20475 11.1166 2.2622 10.8987 2.40454 10.7392L7.40453 5.28466C7.55724 5.07158 7.81859 4.96492 8.07679 5.01032C8.33498 5.05572 8.54428 5.24513 8.61514 5.49753C8.68601 5.74992 8.60589 6.02059 8.40907 6.19375L4.24999 10.7392H19.8454L16.0409 6.19375C15.8697 6.00887 15.8145 5.74469 15.8972 5.50673C15.9799 5.26877 16.1871 5.09581 16.436 5.05693C16.6849 5.01806 16.935 5.11961 17.0863 5.32103L21.6317 10.7756ZM12.9091 12.5755V12.121H11.0909V12.5755H12.9091ZM6.54544 16.6664C8.3027 16.6664 9.72724 15.2419 9.72724 13.4846V12.121H3.36363V13.4846C3.36363 15.2419 4.78817 16.6664 6.54544 16.6664ZM17.4545 16.6664C19.2118 16.6664 20.6363 15.2419 20.6363 13.4846V12.121H14.2727V13.4846C14.2727 15.2419 15.6972 16.6664 17.4545 16.6664ZM6.71362 16.4392C6.65777 16.446 6.60129 16.446 6.54544 16.4392V16.4619C6.16888 16.5083 5.82597 16.2407 5.77953 15.8642C5.73309 15.4876 6.0007 15.1447 6.37726 15.0983C7.12535 14.9147 7.65904 14.2546 7.6818 13.4846C7.6818 13.1081 7.98706 12.8028 8.36361 12.8028C8.74017 12.8028 9.04543 13.1081 9.04543 13.4846C9.03286 14.886 8.0737 16.1013 6.71362 16.4392ZM17.4545 16.4392C17.5103 16.446 17.5668 16.446 17.6227 16.4392C18.9828 16.1013 19.9419 14.886 19.9545 13.4846C19.9545 13.1081 19.6492 12.8028 19.2727 12.8028C18.8961 12.8028 18.5908 13.1081 18.5908 13.4846C18.5681 14.2546 18.0344 14.9147 17.2863 15.0983C16.9098 15.1447 16.6421 15.4876 16.6886 15.8642C16.735 16.2407 17.0779 16.5083 17.4545 16.4619V16.4392Z" fill="white"/>
</mask>
<g mask="url(#mask0)">
<rect width="24" height="24" fill="#0057A1"/>
</g>
</svg>
