<svg width="24" height="24" viewBox="0 0 24 24" fill="none" xmlns="http://www.w3.org/2000/svg">
<mask id="mask0" mask-type="alpha" maskUnits="userSpaceOnUse" x="2" y="5" width="20" height="14">
<path fill-rule="evenodd" clip-rule="evenodd" d="M2.90909 6.81818H21.0909C21.593 6.81818 22 6.41117 22 5.90909C22 5.40701 21.593 5 21.0909 5H2.90909C2.40701 5 2 5.40701 2 5.90909C2 6.41117 2.40701 6.81818 2.90909 6.81818ZM21.0909 11.0606H2.90909C2.40701 11.0606 2 11.4676 2 11.9697C2 12.4718 2.40701 12.8788 2.90909 12.8788H21.0909C21.593 12.8788 22 12.4718 22 11.9697C22 11.4676 21.593 11.0606 21.0909 11.0606ZM2.90909 17.1212H21.0909C21.593 17.1212 22 17.5282 22 18.0303C22 18.5324 21.593 18.9394 21.0909 18.9394H2.90909C2.40701 18.9394 2 18.5324 2 18.0303C2 17.5282 2.40701 17.1212 2.90909 17.1212Z" fill="white"/>
</mask>
<g mask="url(#mask0)">
<rect width="24" height="24" fill="#0057A1"/>
</g>
</svg>
