<svg width="24" height="24" viewBox="0 0 24 24" fill="none" xmlns="http://www.w3.org/2000/svg">
<mask id="mask0" mask-type="alpha" maskUnits="userSpaceOnUse" x="2" y="3" width="20" height="19">
<path fill-rule="evenodd" clip-rule="evenodd" d="M21.5175 10.6468L12.8877 3.32565C12.3755 2.89145 11.6245 2.89145 11.1123 3.32565L2.48251 10.6468C2.05396 11.0119 1.89182 11.6017 2.07349 12.1346C2.25516 12.6675 2.7438 13.0354 3.30614 13.0628V20.3839C3.30614 21.142 3.92073 21.7566 4.67886 21.7566H19.3211C20.0793 21.7566 20.6939 21.142 20.6939 20.3839V13.0673C21.2562 13.04 21.7448 12.6721 21.9265 12.1392C22.1082 11.6063 21.946 11.0165 21.5175 10.6514V10.6468ZM11.5424 20.3885H10.6273V16.2703H13.3727V20.3885H11.5424ZM19.3211 11.6946V20.3885H14.7454V16.2703C14.7454 15.5122 14.1308 14.8976 13.3727 14.8976H10.6273C9.86916 14.8976 9.25457 15.5122 9.25457 16.2703V20.3885H4.67886V11.6946H3.3702L12 4.37348L20.6298 11.6946H19.3211Z" fill="white"/>
</mask>
<g mask="url(#mask0)">
<rect width="24" height="24" fill="#0057A1"/>
</g>
</svg>
