<svg width="24" height="24" viewBox="0 0 24 24" fill="none" xmlns="http://www.w3.org/2000/svg">
<mask id="mask0" mask-type="alpha" maskUnits="userSpaceOnUse" x="2" y="2" width="20" height="20">
<path fill-rule="evenodd" clip-rule="evenodd" d="M12.3297 3.53846C12.3297 3.90261 12.0345 4.1978 11.6703 4.1978C11.3062 4.1978 11.011 3.90261 11.011 3.53846V2.65934C11.011 2.2952 11.3062 2 11.6703 2C12.0345 2 12.3297 2.2952 12.3297 2.65934V3.53846ZM20.2418 10.1319H21.1209C21.485 10.1319 21.7802 10.4271 21.7802 10.7912C21.7802 11.1554 21.485 11.4506 21.1209 11.4506H20.2418C19.8776 11.4506 19.5824 11.1554 19.5824 10.7912C19.5824 10.4271 19.8776 10.1319 20.2418 10.1319ZM4.1978 10.7912C4.1978 10.4271 3.90261 10.1319 3.53846 10.1319H2.65934C2.2952 10.1319 2 10.4271 2 10.7912C2 11.1554 2.2952 11.4506 2.65934 11.4506H3.53846C3.90261 11.4506 4.1978 11.1554 4.1978 10.7912ZM18.2593 6.22857C18.1358 6.35226 17.9682 6.42182 17.7934 6.42198C17.5269 6.42174 17.2868 6.2611 17.1848 6.01488C17.0828 5.76865 17.1391 5.48526 17.3275 5.2967L17.9516 4.67692C18.2114 4.43485 18.6163 4.44199 18.8674 4.69308C19.1184 4.94417 19.1256 5.349 18.8835 5.60879L18.2593 6.22857ZM6.01319 5.2967L5.38901 4.67692C5.12922 4.43485 4.72439 4.44199 4.4733 4.69308C4.22221 4.94417 4.21507 5.349 4.45714 5.60879L5.08132 6.22857C5.34111 6.47065 5.74594 6.4635 5.99703 6.21241C6.24812 5.96133 6.25526 5.55649 6.01319 5.2967ZM18.2271 15.8623C18.4782 15.6112 18.8831 15.6041 19.1429 15.8462L19.767 16.4659C20.0091 16.7257 20.002 17.1306 19.7509 17.3816C19.4998 17.6327 19.095 17.6399 18.8352 17.3978L18.211 16.778C17.9689 16.5182 17.9761 16.1134 18.2271 15.8623ZM4.1978 15.8462L3.57363 16.4659C3.33155 16.7257 3.3387 17.1306 3.58978 17.3816C3.84087 17.6327 4.24571 17.6399 4.50549 17.3978L5.12967 16.778C5.37174 16.5182 5.3646 16.1134 5.11351 15.8623C4.86243 15.6112 4.45759 15.6041 4.1978 15.8462ZM12.8819 5.8081C15.8616 6.29469 18.0482 8.871 18.044 11.8901C18.0442 14.1716 16.7821 16.2661 14.7648 17.3319C14.9019 17.5441 14.9752 17.7913 14.9758 18.044V19.3626C14.9758 20.8192 13.795 22 12.3385 22H11.4593C10.0028 22 8.82198 20.8192 8.82198 19.3626V18.044C8.82263 17.7913 8.89587 17.5441 9.03297 17.3319C6.35898 15.9301 5.09678 12.7956 6.05324 9.93197C7.00969 7.06836 9.90228 5.32151 12.8819 5.8081ZM13.6484 18.4835V18.044H10.1319V19.3626C10.1319 20.0909 10.7223 20.6813 11.4506 20.6813H12.3297C12.8871 20.6798 13.3834 20.3278 13.5692 19.8022H11.4506C11.0864 19.8022 10.7912 19.507 10.7912 19.1429C10.7912 18.7787 11.0864 18.4835 11.4506 18.4835H13.6484ZM7.05494 11.8901C7.05494 14.5605 9.21972 16.7253 11.8901 16.7253H11.8857C13.1688 16.7264 14.3998 16.2175 15.3075 15.3106C16.2153 14.4037 16.7253 13.1732 16.7253 11.8901C16.7253 9.21972 14.5605 7.05494 11.8901 7.05494C9.21972 7.05494 7.05494 9.21972 7.05494 11.8901ZM11.2308 8.81319C11.2308 8.44904 11.526 8.15385 11.8901 8.15385C13.9526 8.15627 15.624 9.82763 15.6264 11.8901C15.6264 12.2543 15.3312 12.5495 14.967 12.5495C14.6029 12.5495 14.3077 12.2543 14.3077 11.8901C14.3053 10.5559 13.2243 9.47495 11.8901 9.47253C11.526 9.47253 11.2308 9.17733 11.2308 8.81319Z" fill="white"/>
</mask>
<g mask="url(#mask0)">
<rect width="24" height="24" fill="#0057A1"/>
</g>
</svg>
