<svg width="24" height="24" viewBox="0 0 24 24" fill="none" xmlns="http://www.w3.org/2000/svg">
<mask id="mask0" mask-type="alpha" maskUnits="userSpaceOnUse" x="2" y="2" width="20" height="20">
<path fill-rule="evenodd" clip-rule="evenodd" d="M12.0016 2.00003C11.6698 2.00003 11.3334 2.00003 11.0016 2.05003C5.70292 2.58181 1.75052 7.17273 2.01228 12.4916C2.27404 17.8104 6.65812 21.9911 11.9834 22C12.3152 22 12.6516 22 12.9834 21.95C18.4784 21.4023 22.4893 16.5042 21.9425 11.0091C21.4499 5.89088 17.1434 1.98811 12.0016 2.00003ZM11.9879 20.6318C7.38046 20.635 3.58188 17.0206 3.35609 12.4187C3.1303 7.81675 6.55683 3.84794 11.1425 3.40003C11.4455 3.36972 11.7334 3.35609 12.0061 3.35912C16.6136 3.35599 20.4122 6.9703 20.638 11.5722C20.8638 16.1742 17.4372 20.143 12.8516 20.5909C12.5485 20.6212 12.2607 20.6348 11.9879 20.6318ZM16.2857 9.61905C16.2857 8.56708 15.4329 7.71429 14.381 7.71429H9.61905C8.56708 7.71429 7.71429 8.56708 7.71429 9.61905V14.381C7.71429 15.4329 8.56708 16.2857 9.61905 16.2857H14.381C15.4329 16.2857 16.2857 15.4329 16.2857 14.381V9.61905ZM14.381 7H9.61905C8.17259 7 7 8.17259 7 9.61905V14.381C7 15.8274 8.17259 17 9.61905 17H14.381C15.8274 17 17 15.8274 17 14.381V9.61905C17 8.17259 15.8274 7 14.381 7ZM14.1429 12C14.1429 10.8165 13.1835 9.85714 12 9.85714C10.8165 9.85714 9.85714 10.8165 9.85714 12C9.85714 13.1835 10.8165 14.1429 12 14.1429C13.1835 14.1429 14.1429 13.1835 14.1429 12ZM12 9.14286C10.8444 9.14286 9.80258 9.83898 9.36034 10.9066C8.91811 11.9743 9.16256 13.2032 9.97969 14.0203C10.7968 14.8374 12.0257 15.0819 13.0934 14.6397C14.161 14.1974 14.8571 13.1556 14.8571 12C14.8571 10.422 13.578 9.14286 12 9.14286ZM14.7381 9.5C15.0011 9.5 15.2143 9.2868 15.2143 9.02381C15.2143 8.76082 15.0011 8.54762 14.7381 8.54762C14.4751 8.54762 14.2619 8.76082 14.2619 9.02381C14.2619 9.2868 14.4751 9.5 14.7381 9.5Z" fill="white"/>
</mask>
<g mask="url(#mask0)">
<rect width="24" height="24" fill="#363B48"/>
</g>
</svg>
