<svg width="24" height="24" viewBox="0 0 24 24" fill="none" xmlns="http://www.w3.org/2000/svg">
<mask id="mask0" mask-type="alpha" maskUnits="userSpaceOnUse" x="2" y="2" width="20" height="20">
<path fill-rule="evenodd" clip-rule="evenodd" d="M16.7619 2H7.2381C4.34518 2 2 4.34518 2 7.2381V16.7619C2 19.6548 4.34518 22 7.2381 22H16.7619C19.6548 22 22 19.6548 22 16.7619V7.2381C22 4.34518 19.6548 2 16.7619 2ZM16.7619 3.42857C18.8658 3.42857 20.5714 5.13415 20.5714 7.2381V16.7619C20.5714 18.8658 18.8658 20.5714 16.7619 20.5714H7.2381C5.13415 20.5714 3.42857 18.8658 3.42857 16.7619V7.2381C3.42857 5.13415 5.13415 3.42857 7.2381 3.42857H16.7619ZM16.2857 12C16.2857 9.63307 14.3669 7.71429 12 7.71429C9.63307 7.71429 7.71429 9.63307 7.71429 12C7.71429 14.3669 9.63307 16.2857 12 16.2857C14.3669 16.2857 16.2857 14.3669 16.2857 12ZM12 6.28571C9.68879 6.28571 7.60515 7.67796 6.72069 9.81324C5.83623 11.9485 6.32512 14.4063 7.95939 16.0406C9.59366 17.6749 12.0515 18.1638 14.1868 17.2793C16.322 16.3948 17.7143 14.3112 17.7143 12C17.7143 8.84409 15.1559 6.28571 12 6.28571ZM17.4762 7C18.0022 7 18.4286 6.5736 18.4286 6.04762C18.4286 5.52163 18.0022 5.09524 17.4762 5.09524C16.9502 5.09524 16.5238 5.52163 16.5238 6.04762C16.5238 6.5736 16.9502 7 17.4762 7Z" fill="white"/>
</mask>
<g mask="url(#mask0)">
<rect width="24" height="24" fill="#0057A1"/>
</g>
</svg>
