<svg width="24" height="24" viewBox="0 0 24 24" fill="none" xmlns="http://www.w3.org/2000/svg">
<mask id="mask0" mask-type="alpha" maskUnits="userSpaceOnUse" x="2" y="4" width="20" height="16">
<path fill-rule="evenodd" clip-rule="evenodd" d="M20.6364 4H3.36364C2.61052 4 2 4.61052 2 5.36364V18.0909C2 18.844 2.61052 19.4545 3.36364 19.4545H20.6364C21.3895 19.4545 22 18.844 22 18.0909V5.36364C22 4.61052 21.3895 4 20.6364 4ZM20.6364 17.1273L17.0273 13.5182C16.7586 13.2679 16.34 13.2752 16.0803 13.5349C15.8207 13.7945 15.8133 14.2132 16.0636 14.4818L19.6727 18.0909H4.32727L7.93636 14.4818C8.18669 14.2132 8.1793 13.7945 7.91966 13.5349C7.66001 13.2752 7.24137 13.2679 6.97273 13.5182L3.36364 17.1273V8.37727L11.5455 14.5455C11.7879 14.7273 12.1212 14.7273 12.3636 14.5455L20.6273 8.37273L20.6364 17.1273ZM20.6364 5.36364V6.67273L11.9682 13.15L3.36364 6.67273V5.36364H20.6364Z" fill="white"/>
</mask>
<g mask="url(#mask0)">
<rect width="24" height="24" fill="#363B48"/>
</g>
</svg>
