<svg width="24" height="24" viewBox="0 0 24 24" fill="none" xmlns="http://www.w3.org/2000/svg">
<mask id="mask0" mask-type="alpha" maskUnits="userSpaceOnUse" x="2" y="2" width="20" height="20">
<path fill-rule="evenodd" clip-rule="evenodd" d="M22 10.7805C22 9.43345 20.908 8.34146 19.561 8.34146H16.1463V4.92683C16.1463 3.46341 15.3073 2 13.7073 2C12.1073 2 11.2683 3.46341 11.2683 4.92683V6.27317L9.50732 8.03415L7.25366 8.76585C7.02849 8.21774 6.495 7.85952 5.90244 7.85854H3.46341C2.65519 7.85854 2 8.51373 2 9.32195V20.0537C2 20.8619 2.65519 21.5171 3.46341 21.5171H5.90244C6.71066 21.5171 7.36585 20.8619 7.36585 20.0537V19.8634L9.48293 21.2732C9.72296 21.4324 10.0046 21.5172 10.2927 21.5171H19.561C20.908 21.5171 22 20.4251 22 19.078V18.5902C21.7386 18.1375 21.7386 17.5796 22 17.1268V15.6634C21.7386 15.2106 21.7386 14.6528 22 14.2V12.7366C21.7386 12.2838 21.7386 11.726 22 11.2732V10.7805ZM5.90244 20.0488H3.46341V9.31707H5.90244V20.0488ZM20.5366 11.2683H19.8049C19.4008 11.2683 19.0732 11.5959 19.0732 12C19.0732 12.4041 19.4008 12.7317 19.8049 12.7317H20.5366V14.1951H19.8049C19.4008 14.1951 19.0732 14.5227 19.0732 14.9268C19.0732 15.3309 19.4008 15.6585 19.8049 15.6585H20.5366V17.122H19.8049C19.4008 17.122 19.0732 17.4495 19.0732 17.8537C19.0732 18.2578 19.4008 18.5854 19.8049 18.5854H20.5366V19.0732C20.5366 19.612 20.0998 20.0488 19.561 20.0488H10.2927L7.36585 18.0976V10.2634L10.2927 9.31707L12.7317 6.87805V4.92683C12.7317 4.92683 12.7317 3.46341 13.7073 3.46341C14.6829 3.46341 14.6829 4.92683 14.6829 4.92683V9.80488H19.561C20.0998 9.80488 20.5366 10.2417 20.5366 10.7805V11.2683Z" fill="white"/>
</mask>
<g mask="url(#mask0)">
<rect width="24" height="24" fill="#363B48"/>
</g>
</svg>
