<svg width="24" height="24" viewBox="0 0 24 24" fill="none" xmlns="http://www.w3.org/2000/svg">
<mask id="mask0" mask-type="alpha" maskUnits="userSpaceOnUse" x="3" y="2" width="18" height="20">
<path fill-rule="evenodd" clip-rule="evenodd" d="M4.62396 5.5206C4.37661 6.44373 4.64053 7.4287 5.31631 8.10448L7.46856 10.2516C7.67372 10.4428 7.75817 10.7307 7.68878 11.0024C7.61939 11.2741 7.40724 11.4862 7.13554 11.5556C6.86384 11.625 6.57593 11.5406 6.38477 11.3354L4.23251 9.18316C3.16953 8.12018 2.75439 6.57085 3.14347 5.11879C3.53255 3.66674 4.66674 2.53255 6.11879 2.14347C7.57085 1.75439 9.12018 2.16953 10.1832 3.23251L14.2423 7.29163C15.3774 8.41071 15.7826 10.0751 15.2889 11.5907C14.7953 13.1064 13.4875 14.2129 11.9111 14.4488H11.7935C11.37 14.4812 11.0004 14.1642 10.9679 13.7407C10.9354 13.3172 11.2524 12.9476 11.6759 12.9151C12.6721 12.7618 13.4974 12.0613 13.8106 11.1034C14.1238 10.1454 13.8717 9.09269 13.1585 8.38054L9.09936 4.32142C8.42359 3.64564 7.43862 3.38172 6.51549 3.62907C5.59236 3.87643 4.87131 4.59747 4.62396 5.5206ZM16.8597 12.6595L19.012 14.8117V14.8168C20.075 15.8798 20.4901 17.4291 20.101 18.8812C19.712 20.3333 18.5778 21.4675 17.1257 21.8565C15.6737 22.2456 14.1243 21.8305 13.0613 20.7675L9.00223 16.7084C7.86715 15.5893 7.46194 13.9249 7.95559 12.4093C8.44925 10.8936 9.75699 9.78715 11.3334 9.55124C11.6074 9.50923 11.8829 9.61657 12.0563 9.83283C12.2297 10.0491 12.2745 10.3414 12.1739 10.5997C12.0733 10.8579 11.8425 11.0429 11.5686 11.0849C10.5724 11.2382 9.74713 11.9387 9.43392 12.8966C9.12072 13.8546 9.37283 14.9073 10.086 15.6195L14.1451 19.6786C14.8209 20.3544 15.8059 20.6183 16.729 20.3709C17.6521 20.1236 18.3732 19.4025 18.6205 18.4794C18.8679 17.5563 18.604 16.5713 17.9282 15.8955L15.7759 13.7433C15.4944 13.4411 15.5027 12.9703 15.7947 12.6783C16.0868 12.3862 16.5576 12.3779 16.8597 12.6595Z" fill="white"/>
</mask>
<g mask="url(#mask0)">
<rect width="24" height="24" fill="#0057A1"/>
</g>
</svg>
