<svg width="24" height="24" viewBox="0 0 24 24" fill="none" xmlns="http://www.w3.org/2000/svg">
<mask id="mask0" mask-type="alpha" maskUnits="userSpaceOnUse" x="2" y="3" width="20" height="19">
<path fill-rule="evenodd" clip-rule="evenodd" d="M2.71429 6.33513H4.00476C4.32184 7.46266 5.35016 8.24169 6.52143 8.24169C7.69269 8.24169 8.72102 7.46266 9.0381 6.33513H21.2857C21.6802 6.33513 22 6.01533 22 5.62084C22 5.22635 21.6802 4.90656 21.2857 4.90656H9.04286C8.72578 3.77903 7.69745 3 6.52619 3C5.35493 3 4.3266 3.77903 4.00952 4.90656H2.71429C2.3198 4.90656 2 5.22635 2 5.62084C2 6.01533 2.3198 6.33513 2.71429 6.33513ZM6.52381 4.43037C7.18129 4.43037 7.71429 4.96336 7.71429 5.62084C7.71429 6.27833 7.18129 6.81132 6.52381 6.81132C5.86633 6.81132 5.33333 6.27833 5.33333 5.62084C5.33333 4.96336 5.86633 4.43037 6.52381 4.43037ZM21.2857 11.5732H14.4381C14.0484 10.5662 13.0798 9.90243 12 9.90243C10.9202 9.90243 9.95159 10.5662 9.5619 11.5732H2.71429C2.3198 11.5732 2 11.893 2 12.2875C2 12.682 2.3198 13.0018 2.71429 13.0018H9.42857C9.66166 14.2396 10.7428 15.1362 12.0024 15.1362C13.2619 15.1362 14.3431 14.2396 14.5762 13.0018H21.2857C21.6802 13.0018 22 12.682 22 12.2875C22 11.893 21.6802 11.5732 21.2857 11.5732ZM12 13.7161C11.3425 13.7161 10.8095 13.1831 10.8095 12.5256C10.8095 11.8681 11.3425 11.3351 12 11.3351C12.6575 11.3351 13.1905 11.8681 13.1905 12.5256C13.1905 13.1831 12.6575 13.7161 12 13.7161ZM21.2857 18.2399H19.9952C19.6782 17.1124 18.6498 16.3333 17.4786 16.3333C16.3073 16.3333 15.279 17.1124 14.9619 18.2399H2.71429C2.3198 18.2399 2 18.5597 2 18.9542C2 19.3487 2.3198 19.6685 2.71429 19.6685H14.9571C15.2742 20.796 16.3025 21.575 17.4738 21.575C18.6451 21.575 19.6734 20.796 19.9905 19.6685H21.2857C21.6802 19.6685 22 19.3487 22 18.9542C22 18.5597 21.6802 18.2399 21.2857 18.2399ZM17.4762 20.1447C16.8187 20.1447 16.2857 19.6117 16.2857 18.9542C16.2857 18.2967 16.8187 17.7637 17.4762 17.7637C18.1337 17.7637 18.6667 18.2967 18.6667 18.9542C18.6667 19.6117 18.1337 20.1447 17.4762 20.1447Z" fill="white"/>
</mask>
<g mask="url(#mask0)">
<rect width="24" height="24" fill="#363B48"/>
</g>
</svg>
