<svg width="24" height="24" viewBox="0 0 24 24" fill="none" xmlns="http://www.w3.org/2000/svg">
<mask id="mask0" mask-type="alpha" maskUnits="userSpaceOnUse" x="4" y="2" width="17" height="20">
<path fill-rule="evenodd" clip-rule="evenodd" d="M12.1818 2C7.71051 2.1124 4.1124 5.71051 4 10.1818C4.07586 11.5038 4.44047 12.7931 5.06818 13.9591L5.13182 14.0727C10.0773 22 11.5545 22 12.1818 22C13.1636 22 14.2227 21.3091 16.7273 17.7864C18.0409 15.9682 19.1682 14.15 19.2136 14.0682L19.2773 13.9591C19.9113 12.7946 20.2822 11.5052 20.3636 10.1818C20.2512 5.71051 16.6531 2.1124 12.1818 2V2ZM18.0909 13.3636C18.0909 13.3636 13.5455 20.6364 12.1818 20.6364C10.8182 20.6364 6.27273 13.3636 6.27273 13.3636C5.74429 12.3808 5.4342 11.2955 5.36364 10.1818C5.36364 6.41624 8.41624 3.36364 12.1818 3.36364C15.9474 3.36364 19 6.41624 19 10.1818C18.9252 11.2965 18.6105 12.3819 18.0773 13.3636H18.0909ZM12.1818 6.09091C10.1735 6.09091 8.54545 7.71896 8.54545 9.72727C8.54545 11.7356 10.1735 13.3636 12.1818 13.3636C14.1901 13.3636 15.8182 11.7356 15.8182 9.72727C15.8182 7.71896 14.1901 6.09091 12.1818 6.09091ZM12.1818 12C10.9266 12 9.90909 10.9825 9.90909 9.72727C9.90909 8.47208 10.9266 7.45455 12.1818 7.45455C13.437 7.45455 14.4545 8.47208 14.4545 9.72727C14.4545 10.9825 13.437 12 12.1818 12Z" fill="white"/>
</mask>
<g mask="url(#mask0)">
<rect width="24" height="24" fill="#0057A1"/>
</g>
</svg>
