<svg width="24" height="24" viewBox="0 0 24 24" fill="none" xmlns="http://www.w3.org/2000/svg">
<mask id="mask0" mask-type="alpha" maskUnits="userSpaceOnUse" x="2" y="2" width="20" height="20">
<path fill-rule="evenodd" clip-rule="evenodd" d="M12 2C6.47715 2 2 6.47715 2 12C2 17.5228 6.47715 22 12 22C17.5228 22 22 17.5228 22 12C22 6.47715 17.5228 2 12 2ZM12 20.6364C7.23027 20.6364 3.36364 16.7697 3.36364 12C3.36364 7.23027 7.23027 3.36364 12 3.36364C16.7697 3.36364 20.6364 7.23027 20.6364 12C20.6364 14.2905 19.7265 16.4872 18.1068 18.1068C16.4872 19.7265 14.2905 20.6364 12 20.6364ZM13.6818 8.93182C13.0661 9.00381 12.4832 9.24801 12 9.63636C11.5154 9.24744 10.9309 9.00322 10.3136 8.93182C9.42923 8.91537 8.60037 9.36168 8.12727 10.1091C7.68616 10.816 7.64651 11.702 8.02273 12.4455C8.38182 13.1545 10.6182 15.0409 11.5682 15.8227C11.8202 16.0308 12.1844 16.0308 12.4364 15.8227C13.3818 15.0455 15.6182 13.1545 15.9773 12.4409C16.3507 11.6943 16.3076 10.807 15.8636 10.1C15.3943 9.35199 14.5646 8.90774 13.6818 8.93182ZM14.7545 11.8318C14.5727 12.1545 13.2591 13.35 12 14.4091C11.0099 13.6286 10.087 12.7665 9.24091 11.8318C9.0813 11.5112 9.10025 11.1305 9.29091 10.8273C9.51473 10.4803 9.90566 10.2779 10.3182 10.2955C10.7706 10.4361 11.1854 10.6769 11.5318 11C11.7958 11.254 12.2133 11.254 12.4773 11C12.8224 10.6775 13.2356 10.4367 13.6864 10.2955C14.0976 10.2729 14.4889 10.4746 14.7091 10.8227C14.8997 11.1276 14.9186 11.5096 14.7591 11.8318H14.7545Z" fill="white"/>
</mask>
<g mask="url(#mask0)">
<rect width="24" height="24" fill="#363B48"/>
</g>
</svg>
