<svg width="24" height="24" viewBox="0 0 24 24" fill="none" xmlns="http://www.w3.org/2000/svg">
<mask id="mask0" mask-type="alpha" maskUnits="userSpaceOnUse" x="2" y="2" width="20" height="20">
<path fill-rule="evenodd" clip-rule="evenodd" d="M20.6533 3.95923L16.0028 2.09902C15.6053 1.94256 15.158 1.97684 14.789 2.19203C14.4199 1.97684 13.9727 1.94256 13.5752 2.09902L8.92464 3.95923C8.86213 3.98427 8.80152 4.0138 8.74327 4.04759C8.68503 4.0138 8.62441 3.98427 8.5619 3.95923L3.91137 2.09902C3.4814 1.92778 2.99449 1.9809 2.61157 2.24085C2.22865 2.50079 1.99955 2.9337 2 3.39652V18.7433C1.99945 19.315 2.34778 19.8292 2.87895 20.0408L7.52948 21.901C7.92698 22.0574 8.37425 22.0232 8.74327 21.808C9.11229 22.0232 9.55956 22.0574 9.95706 21.901L14.6076 20.0408C14.6701 20.0157 14.7307 19.9862 14.789 19.9524C14.8472 19.9862 14.9078 20.0157 14.9703 20.0408L19.6209 21.901C20.0508 22.0722 20.5377 22.0191 20.9207 21.7592C21.3036 21.4992 21.5327 21.0663 21.5322 20.6035V5.25673C21.5328 4.68499 21.1844 4.17078 20.6533 3.95923V3.95923ZM3.39516 18.7433V3.39652L8.04569 5.25673V20.6035L3.39516 18.7433ZM9.44085 20.6035V5.25673L14.0914 3.39652V18.7433L9.44085 20.6035ZM20.1371 20.6035L15.4865 18.7433V3.39652L20.1371 5.25673V20.6035Z" fill="white"/>
</mask>
<g mask="url(#mask0)">
<rect width="24" height="24" fill="#0057A1"/>
</g>
</svg>
