<svg width="24" height="24" viewBox="0 0 24 24" fill="none" xmlns="http://www.w3.org/2000/svg">
<mask id="mask0" mask-type="alpha" maskUnits="userSpaceOnUse" x="2" y="2" width="20" height="20">
<path fill-rule="evenodd" clip-rule="evenodd" d="M16.3107 8.8182H7.6743C7.29775 8.8182 6.99249 9.12346 6.99249 9.50002C6.99249 9.87657 7.29775 10.1818 7.6743 10.1818H16.3107C16.6872 10.1818 16.9925 9.87657 16.9925 9.50002C16.9925 9.12346 16.6872 8.8182 16.3107 8.8182ZM16.7652 11.5455H7.6743C7.29775 11.5455 6.99249 11.8507 6.99249 12.2273C6.99249 12.6038 7.29775 12.9091 7.6743 12.9091H16.3107C16.6872 12.9091 16.9925 12.6038 16.9925 12.2273C16.9925 12.1369 17.0011 12.0507 17.0089 11.9718C17.0338 11.7218 17.0514 11.5455 16.7652 11.5455ZM7.6743 14.2727H16.3107C16.6872 14.2727 16.9925 14.578 16.9925 14.9546C16.9925 15.3311 16.6872 15.6364 16.3107 15.6364H7.6743C7.29775 15.6364 6.99249 15.3311 6.99249 14.9546C6.99249 14.578 7.29775 14.2727 7.6743 14.2727ZM12.0016 2.00003C11.6698 2.00003 11.3334 2.00003 11.0016 2.05003C5.70292 2.58181 1.75052 7.17273 2.01228 12.4916C2.27404 17.8104 6.65812 21.9911 11.9834 22C12.3152 22 12.6516 22 12.9834 21.95C18.4784 21.4023 22.4893 16.5042 21.9425 11.0091C21.4499 5.89088 17.1434 1.98811 12.0016 2.00003ZM11.9879 20.6318C7.38046 20.635 3.58188 17.0206 3.35609 12.4187C3.1303 7.81675 6.55683 3.84794 11.1425 3.40003C11.4455 3.36972 11.7334 3.35609 12.0061 3.35912C16.6136 3.35599 20.4122 6.9703 20.638 11.5722C20.8637 16.1742 17.4372 20.143 12.8516 20.5909C12.5485 20.6212 12.2607 20.6349 11.9879 20.6318Z" fill="white"/>
</mask>
<g mask="url(#mask0)">
<rect width="24" height="24" fill="#0057A1"/>
</g>
</svg>
