<svg width="24" height="24" viewBox="0 0 24 24" fill="none" xmlns="http://www.w3.org/2000/svg">
<mask id="mask0" mask-type="alpha" maskUnits="userSpaceOnUse" x="3" y="2" width="18" height="20">
<path fill-rule="evenodd" clip-rule="evenodd" d="M4.36364 20.6364H18V12H19.3636V20.6364C19.3636 21.3895 18.7531 22 18 22H4.36364C3.61052 22 3 21.3895 3 20.6364V3.36364C3 2.61052 3.61052 2 4.36364 2H12.0909V3.36364H4.36364V20.6364ZM19.3636 2.73636L20.3273 3.7V3.70455C20.859 4.23694 20.859 5.09942 20.3273 5.63182C20.3273 5.63182 12.8773 13.3227 12.4227 13.4409L11.0591 13.7818C10.5941 13.8985 10.1019 13.7624 9.76293 13.4234C9.42392 13.0844 9.28785 12.5923 9.40455 12.1273L9.74545 10.7636C9.85909 10.3045 17.4364 2.73636 17.4364 2.73636C17.9688 2.20463 18.8312 2.20463 19.3636 2.73636ZM12.9636 11.0636L12.0318 10.1318L12 10.1045L18.4 3.70455L19.3636 4.66818L12.9636 11.0636Z" fill="white"/>
</mask>
<g mask="url(#mask0)">
<rect width="24" height="24" fill="#363B48"/>
</g>
</svg>
