<svg width="24" height="24" viewBox="0 0 24 24" fill="none" xmlns="http://www.w3.org/2000/svg">
<mask id="mask0" mask-type="alpha" maskUnits="userSpaceOnUse" x="2" y="2" width="20" height="20">
<path fill-rule="evenodd" clip-rule="evenodd" d="M21.4465 2.5414C20.5209 1.61583 18.8734 1.88425 16.504 3.2911C12.9951 1.57356 8.7857 2.24407 5.98413 4.96678C3.18256 7.6895 2.39217 11.8781 4.00885 15.4345C2.00963 18.4519 1.50057 20.4881 2.49093 21.4831C2.87786 21.8417 3.39422 22.0272 3.92092 21.9968C5.064 21.9968 6.48937 21.3859 7.65558 20.7565C8.02118 20.5575 8.39603 20.3308 8.77551 20.0947C12.3149 21.5982 16.4152 20.7566 19.0761 17.9805C21.7371 15.2044 22.4043 11.0721 20.7523 7.59961C21.9602 5.36437 22.3721 3.46696 21.4465 2.5414ZM20.4654 3.5225C20.5996 3.6567 20.7338 4.42029 19.9193 6.17424C19.3478 5.38482 18.656 4.68991 17.8692 4.11486C19.4889 3.25871 20.2664 3.32813 20.4608 3.5225H20.4654ZM12.4269 3.72149C13.5773 3.72211 14.7134 3.97651 15.7543 4.46657C15.8761 4.7598 16.1879 4.92635 16.4993 4.86456C17.6013 5.53273 18.5229 6.46065 19.1835 7.56721C17.7342 9.95242 15.993 12.1475 14.0003 14.1017C12.3798 15.7418 10.6036 17.2204 8.69684 18.5166C5.5061 16.815 3.88625 13.1574 4.77051 9.65104C5.65477 6.14468 8.81538 3.69266 12.4315 3.70761L12.4269 3.72149ZM7.00768 19.5348C4.88814 20.6825 3.72193 20.738 3.48591 20.502C3.24989 20.266 3.36558 19.1136 4.79095 16.7997C5.47835 17.7985 6.35392 18.6536 7.36865 19.3173L7.00768 19.5348ZM20.2895 11.5888C20.2877 14.0632 19.1218 16.3925 17.1422 17.877C15.1625 19.3615 12.5999 19.8281 10.224 19.1368C11.9163 17.9175 13.5059 16.5616 14.9768 15.0828C16.814 13.2628 18.4579 11.2575 19.8823 9.09902C20.1511 9.90163 20.2886 10.7424 20.2895 11.5888V11.5888Z" fill="white"/>
</mask>
<g mask="url(#mask0)">
<rect width="24" height="24" fill="#0057A1"/>
</g>
</svg>
