<svg width="24" height="24" viewBox="0 0 24 24" fill="none" xmlns="http://www.w3.org/2000/svg">
<mask id="mask0" mask-type="alpha" maskUnits="userSpaceOnUse" x="2" y="2" width="20" height="20">
<path fill-rule="evenodd" clip-rule="evenodd" d="M12 2C6.47715 2 2 6.47715 2 12C2 17.5228 6.47715 22 12 22C17.5228 22 22 17.5228 22 12C22 6.47715 17.5228 2 12 2ZM12 20.6364C7.23027 20.6364 3.36364 16.7697 3.36364 12C3.36364 7.23027 7.23027 3.36364 12 3.36364C16.7697 3.36364 20.6364 7.23027 20.6364 12C20.6364 16.7697 16.7697 20.6364 12 20.6364ZM15.3364 10.7727L10.7909 8.5C10.367 8.28839 9.86373 8.31193 9.46147 8.56218C9.05921 8.81243 8.81567 9.25353 8.81818 9.72727V14.2727C8.81883 14.7449 9.06364 15.1831 9.46535 15.4311C9.86706 15.6792 10.3685 15.7018 10.7909 15.4909L15.3364 13.2182C15.7992 12.9875 16.0917 12.5149 16.0917 11.9977C16.0917 11.4806 15.7992 11.0079 15.3364 10.7773V10.7727ZM10.1818 14.2727V9.72727L14.7273 12L10.1818 14.2727Z" fill="white"/>
</mask>
<g mask="url(#mask0)">
<rect width="24" height="24" fill="#363B48"/>
</g>
</svg>
