<svg width="24" height="24" viewBox="0 0 24 24" fill="none" xmlns="http://www.w3.org/2000/svg">
<mask id="mask0" mask-type="alpha" maskUnits="userSpaceOnUse" x="2" y="2" width="20" height="20">
<path fill-rule="evenodd" clip-rule="evenodd" d="M12 2C6.47715 2 2 6.47715 2 12C2 17.5228 6.47715 22 12 22C17.5228 22 22 17.5228 22 12C22 6.47715 17.5228 2 12 2ZM12 20.6364C7.23027 20.6364 3.36364 16.7697 3.36364 12C3.36364 7.23027 7.23027 3.36364 12 3.36364C16.7697 3.36364 20.6364 7.23027 20.6364 12C20.6364 14.2905 19.7265 16.4872 18.1068 18.1068C16.4872 19.7265 14.2905 20.6364 12 20.6364ZM15.6364 11.5455H12.9091V8.81818C12.9091 8.44162 12.6038 8.13636 12.2273 8.13636C11.8507 8.13636 11.5455 8.44162 11.5455 8.81818V11.5455H8.81818C8.44162 11.5455 8.13636 11.8507 8.13636 12.2273C8.13636 12.6038 8.44162 12.9091 8.81818 12.9091H11.5455V15.6364C11.5455 16.0129 11.8507 16.3182 12.2273 16.3182C12.6038 16.3182 12.9091 16.0129 12.9091 15.6364V12.9091H15.6364C16.0129 12.9091 16.3182 12.6038 16.3182 12.2273C16.3182 11.8507 16.0129 11.5455 15.6364 11.5455Z" fill="white"/>
</mask>
<g mask="url(#mask0)">
<rect width="24" height="24" fill="#363B48"/>
</g>
</svg>
