<svg width="24" height="24" viewBox="0 0 24 24" fill="none" xmlns="http://www.w3.org/2000/svg">
<mask id="mask0" mask-type="alpha" maskUnits="userSpaceOnUse" x="3" y="2" width="19" height="20">
<path fill-rule="evenodd" clip-rule="evenodd" d="M12.6017 11.7224L13.4792 10.8449C13.7584 10.981 14.0647 11.0524 14.3753 11.0538C15.5292 11.0538 16.4647 10.1184 16.4647 8.96448C16.4647 7.81056 15.5292 6.87513 14.3753 6.87513C13.2214 6.87513 12.286 7.81056 12.286 8.96448C12.2874 9.27508 12.3588 9.58138 12.4949 9.86057L11.6174 10.7381L7.6987 6.81942L6.82582 5.94654L5.85544 6.70799C4.05918 8.08814 3.00449 10.2233 3 12.4885C3.00417 15.1798 4.47165 17.6558 6.83046 18.9515L5.65114 20.9155C5.50778 21.1292 5.49391 21.4045 5.61508 21.6315C5.73625 21.8585 5.97271 22.0002 6.23003 22C6.48734 21.9998 6.72358 21.8577 6.84439 21.6305L8.11657 19.5087C8.86578 19.7549 9.64942 19.8803 10.4381 19.8801C10.9438 19.8785 11.448 19.8241 11.9424 19.7176L13.0892 21.6305C13.21 21.8577 13.4463 21.9998 13.7036 22C13.9609 22.0002 14.1973 21.8585 14.3185 21.6315C14.4397 21.4045 14.4258 21.1292 14.2825 20.9155L13.2981 19.2765C14.4286 18.7767 15.4164 18.0027 16.1721 17.0247L16.9336 16.0543L16.0607 15.1814L12.6017 11.7224ZM14.3753 8.26803C14.7599 8.26803 15.0718 8.57984 15.0718 8.96448C15.0718 9.34911 14.7599 9.66092 14.3753 9.66092C13.9907 9.66092 13.6789 9.34911 13.6789 8.96448C13.6789 8.57984 13.9907 8.26803 14.3753 8.26803ZM10.4288 18.4826C8.83176 18.4912 7.29712 17.8632 6.16436 16.7374C5.03161 15.6116 4.39411 14.0809 4.3929 12.4839C4.39213 10.6466 5.25115 8.91481 6.71439 7.80373L15.0718 16.1611C13.9757 17.6225 12.2555 18.4826 10.4288 18.4826ZM15.5128 2C15.1282 2 14.8164 2.31181 14.8164 2.69645C14.8164 3.08108 15.1282 3.3929 15.5128 3.3929C17.4397 3.3929 19.9283 5.98832 19.9469 7.93838C19.9438 8.34145 20.2433 8.68284 20.6433 8.73233V8.73233C21.048 8.68215 21.3478 8.33201 21.3351 7.92445C21.3119 5.20366 18.2104 2 15.5128 2ZM15.5871 4.78579C15.2025 4.78579 14.8907 5.0976 14.8907 5.48224C14.8907 5.86688 15.2025 6.17869 15.5871 6.17869C16.4564 6.17869 17.1611 6.88338 17.1611 7.75266C17.1611 8.13729 17.4729 8.4491 17.8575 8.4491C18.2422 8.4491 18.554 8.13729 18.554 7.75266C18.5514 6.11516 17.2246 4.78835 15.5871 4.78579Z" fill="white"/>
</mask>
<g mask="url(#mask0)">
<rect width="24" height="24" fill="#0057A1"/>
</g>
</svg>
