<svg width="24" height="24" viewBox="0 0 24 24" fill="none" xmlns="http://www.w3.org/2000/svg">
<mask id="mask0" mask-type="alpha" maskUnits="userSpaceOnUse" x="2" y="2" width="20" height="20">
<path fill-rule="evenodd" clip-rule="evenodd" d="M13.6077 7.98496C12.5226 7.98568 11.583 8.73849 11.3456 9.79729C11.1083 10.8561 11.6366 11.938 12.6176 12.4018C13.5985 12.8657 14.7699 12.5876 15.4377 11.7323C16.1054 10.877 16.0911 9.67311 15.4032 8.83399C14.9622 8.29612 14.3032 7.98449 13.6077 7.98496ZM14.1969 11.0238C13.9067 11.2622 13.5014 11.3022 13.1702 11.125C12.8391 10.9478 12.6473 10.5885 12.6846 10.2148C12.7218 9.8411 12.9807 9.52668 13.3403 9.41835C13.6999 9.31003 14.0893 9.42916 14.3268 9.72013C14.649 10.1175 14.5888 10.7007 14.1922 11.0238H14.1969ZM21.9959 3.34546C21.9728 2.62282 21.4003 2.03819 20.6783 2C20.6783 2 20.4788 2 20.1262 2C18.1126 2 13.1066 2.3294 10.0677 5.36828C9.54128 5.89793 9.05437 6.46547 8.61092 7.06634L8.49029 7.09881L2.95537 8.98709C2.49332 9.1397 2.14451 9.52252 2.03544 9.99674C1.92637 10.471 2.07288 10.9677 2.42183 11.3068L5.38183 14.2715C4.97168 14.4 4.59475 14.617 4.27763 14.9071C3.59075 15.7145 3.27579 16.7739 3.41004 17.8253C3.35405 18.0213 3.27131 18.2087 3.16415 18.3821C2.91404 18.769 2.87163 19.2547 3.05088 19.6791C3.23013 20.1036 3.60781 20.4118 4.05957 20.5023C4.20012 20.5303 4.3431 20.5443 4.4864 20.5441C4.90155 20.5396 5.30869 20.4294 5.66948 20.224C5.79733 20.317 5.9401 20.3876 6.09167 20.4327C6.35138 20.5054 6.61999 20.5413 6.88967 20.5394C7.69174 20.5432 8.46194 20.2257 9.02848 19.6579C9.32986 19.3535 9.55691 18.9835 9.69193 18.5769L12.6287 21.5137C12.9692 21.8624 13.4672 22.0076 13.9417 21.8966C14.4162 21.7856 14.7981 21.4345 14.9485 20.9709L16.7672 15.5149C17.3987 15.0778 17.9902 14.5857 18.5348 14.0441C22.1907 10.3604 22.0052 3.64238 21.9959 3.34546ZM7.40929 8.91286C6.73863 10.1279 6.23014 11.4257 5.89681 12.7729L3.40076 10.3047L7.40929 8.91286ZM8.04026 18.6558C7.73357 18.96 7.31693 19.1273 6.88503 19.1198C6.75058 19.1217 6.61644 19.1061 6.48603 19.0734C6.48603 19.0734 6.44427 17.9784 6.18446 17.7186C6.18446 17.7186 5.34935 19.1105 4.48177 19.1105C4.43086 19.1156 4.37957 19.1156 4.32866 19.1105C4.61543 18.679 4.7761 18.1761 4.79261 17.6583C4.70549 17.0221 4.87214 16.3772 5.25656 15.8628C5.69896 15.5485 6.23116 15.3858 6.77368 15.3989C7.241 15.3774 7.69736 15.5446 8.04026 15.8628C8.04026 15.8628 9.00992 17.6862 8.04026 18.6558ZM13.6077 20.5116L10.926 17.83C12.3128 17.6121 13.6591 17.1884 14.9206 16.5727L13.6077 20.5116ZM17.528 13.042C15.5218 15.0137 12.9035 16.2427 10.1048 16.5263L9.59914 16.0206C9.50886 15.7432 9.39717 15.4733 9.26509 15.2133C9.2013 15.0922 9.12001 14.9812 9.02384 14.8839C8.66102 14.5232 8.20988 14.264 7.7155 14.1323L7.15412 13.5709C7.72756 10.8383 9.08132 8.3306 11.0513 6.35185C12.1733 5.29868 13.5347 4.53437 15.0181 4.12489C14.9748 5.43633 15.4384 6.71404 16.3125 7.69267C17.2589 8.55534 18.508 9.00894 19.7875 8.95461H19.8246C19.4063 10.48 18.6265 11.882 17.5512 13.042H17.528ZM20.1865 7.54884C18.9663 7.63699 17.9178 7.34007 17.2961 6.71373C16.6744 6.0874 16.3682 5.01104 16.4099 3.77229C17.6318 3.52513 18.8749 3.39771 20.1215 3.39185C20.2779 3.40005 20.4346 3.38281 20.5855 3.34082C20.6156 4.75266 20.4817 6.16324 20.1865 7.5442V7.54884Z" fill="white"/>
</mask>
<g mask="url(#mask0)">
<rect width="24" height="24" fill="#363B48"/>
</g>
</svg>
