<svg width="24" height="24" viewBox="0 0 24 24" fill="none" xmlns="http://www.w3.org/2000/svg">
<mask id="mask0" mask-type="alpha" maskUnits="userSpaceOnUse" x="2" y="2" width="20" height="20">
<path fill-rule="evenodd" clip-rule="evenodd" d="M20.8067 20.7457L16.3015 16.2648C19.4582 13.0886 19.5544 7.99 16.5197 4.69697C13.4851 1.40393 8.39558 1.08412 4.97256 3.97136C1.54955 6.8586 1.00672 11.9292 3.74098 15.4756C6.47525 19.022 11.5171 19.7868 15.1801 17.2107L19.773 21.8037C20.0612 22.0722 20.5103 22.0643 20.7888 21.7858C21.0673 21.5073 21.0752 21.0582 20.8067 20.77V20.7457ZM3.59039 10.4139C3.59039 6.64401 6.64652 3.58788 10.4164 3.58788C14.1864 3.58788 17.2425 6.64401 17.2425 10.4139C17.2425 14.1839 14.1864 17.24 10.4164 17.24C6.64652 17.24 3.59039 14.1839 3.59039 10.4139Z" fill="white"/>
</mask>
<g mask="url(#mask0)">
<rect width="24" height="24" fill="#0057A1"/>
</g>
</svg>
