<svg width="24" height="24" viewBox="0 0 24 24" fill="none" xmlns="http://www.w3.org/2000/svg">
<mask id="mask0" mask-type="alpha" maskUnits="userSpaceOnUse" x="2" y="2" width="20" height="20">
<path fill-rule="evenodd" clip-rule="evenodd" d="M17.884 14.8153C16.8013 14.816 15.7768 15.3056 15.0962 16.1477L9.05944 13.1293C9.21935 12.5146 9.20872 11.868 9.0287 11.2589L15.1782 7.93301C16.3755 9.31882 18.4245 9.58019 19.9314 8.53932C21.4382 7.49845 21.9191 5.48961 21.0468 3.87927C20.1745 2.26892 18.2293 1.57422 16.5343 2.26771C14.8392 2.9612 13.9388 4.82018 14.4454 6.58012L8.29588 9.90598C7.30726 8.76736 5.7121 8.36857 4.30396 8.908C2.89583 9.44742 1.97537 10.8099 2.0005 12.3176C2.02563 13.8253 2.99098 15.1564 4.41631 15.6486C5.84164 16.1408 7.42262 15.689 8.37275 14.5181L14.4095 17.5365C14.0352 19.0223 14.6459 20.5818 15.9297 21.4182C17.2134 22.2547 18.8867 22.1835 20.0947 21.241C21.3027 20.2984 21.7787 18.6927 21.2795 17.2441C20.7803 15.7955 19.4162 14.8238 17.884 14.8256V14.8153ZM17.884 3.54124C19.0161 3.54124 19.9338 4.45899 19.9338 5.59108C19.9338 6.72317 19.0161 7.64091 17.884 7.64091C16.7519 7.64091 15.8341 6.72317 15.8341 5.59108C15.8341 4.45899 16.7519 3.54124 17.884 3.54124ZM5.58497 14.3029C4.45288 14.3029 3.53514 13.3851 3.53514 12.253C3.53514 11.1209 4.45288 10.2032 5.58497 10.2032C6.71707 10.2032 7.63481 11.1209 7.63481 12.253C7.63481 13.3851 6.71707 14.3029 5.58497 14.3029ZM17.884 20.4524C16.7519 20.4524 15.8341 19.5346 15.8341 18.4025C15.8341 17.2704 16.7519 16.3527 17.884 16.3527C19.0161 16.3527 19.9338 17.2704 19.9338 18.4025C19.9338 19.5346 19.0161 20.4524 17.884 20.4524Z" fill="white"/>
</mask>
<g mask="url(#mask0)">
<rect width="24" height="24" fill="#0057A1"/>
</g>
</svg>
