<svg width="24" height="24" viewBox="0 0 24 24" fill="none" xmlns="http://www.w3.org/2000/svg">
<mask id="mask0" mask-type="alpha" maskUnits="userSpaceOnUse" x="2" y="5" width="20" height="15">
<path fill-rule="evenodd" clip-rule="evenodd" d="M15.0337 5H16.8315C17.5726 4.99998 18.1748 5.59818 18.1798 6.33933V18.0247C18.1798 18.7694 17.5761 19.373 16.8315 19.373H15.0337C14.3929 19.3732 13.8405 18.9222 13.7124 18.2944L12.0719 17.5708C12.0346 17.6799 11.9696 17.7775 11.8831 17.8539C11.2862 18.3865 10.5167 18.685 9.71685 18.6944C9.27408 18.6963 8.83698 18.5948 8.44045 18.3978C7.36384 17.8608 6.69347 16.7511 6.7191 15.5483C6.71976 15.4452 6.74437 15.3437 6.79101 15.2517L5.95955 14.8876C5.77011 15.4235 5.26498 15.783 4.69663 15.7865H3.34831C2.60366 15.7865 2 15.1829 2 14.4382V9.94382C2 9.19917 2.60366 8.59551 3.34831 8.59551H4.69663C5.26663 8.59711 5.77405 8.95698 5.96405 9.49438L13.6854 6.38876V6.34831C13.6854 5.60366 14.2891 5 15.0337 5ZM19.5146 9.68764C19.6418 9.68779 19.7665 9.65196 19.8742 9.58427L21.2674 8.68539C21.478 8.5595 21.6035 8.32915 21.5953 8.08396C21.587 7.83876 21.4461 7.61743 21.2275 7.50606C21.0089 7.39469 20.747 7.41088 20.5438 7.54831L19.1506 8.44719C18.8953 8.60758 18.7776 8.91789 18.8622 9.20721C18.9468 9.49653 19.2132 9.69452 19.5146 9.69213V9.68764ZM19.9775 11.2921H21.3258C21.6982 11.2921 22 11.594 22 11.9663C22 12.3386 21.6982 12.6404 21.3258 12.6404H19.9775C19.6052 12.6404 19.3034 12.3386 19.3034 11.9663C19.3034 11.594 19.6052 11.2921 19.9775 11.2921ZM19.9011 14.3258L21.2494 15.2247C21.5597 15.4307 21.6442 15.8493 21.4382 16.1596C21.2322 16.4698 20.8136 16.5543 20.5034 16.3483L19.1551 15.4494C18.8448 15.2434 18.7603 14.8249 18.9663 14.5146C19.1723 14.2043 19.5909 14.1198 19.9011 14.3258ZM4.69663 14.4382H3.34831V9.94382H4.69663V14.4382ZM13.6854 16.9101L6.04494 13.5034V10.8921L13.6854 7.79551V16.9101ZM9.0427 17.2067C8.50753 16.9444 8.14561 16.4244 8.08539 15.8315L10.782 17.0135C10.2782 17.3834 9.61546 17.4571 9.0427 17.2067V17.2067ZM16.8315 18.0337H15.0337V6.34831H16.8315V18.0337Z" fill="white"/>
</mask>
<g mask="url(#mask0)">
<rect width="24" height="24" fill="#0057A1"/>
</g>
</svg>
