<svg width="24" height="24" viewBox="0 0 24 24" fill="none" xmlns="http://www.w3.org/2000/svg">
<mask id="mask0" mask-type="alpha" maskUnits="userSpaceOnUse" x="3" y="2" width="18" height="20">
<path fill-rule="evenodd" clip-rule="evenodd" d="M11 15.8824C11 16.2722 11.316 16.5882 11.7059 16.5882C12.0884 16.578 12.3931 16.265 12.3929 15.8824V4.69647L14.2 6.91765C14.3179 7.06306 14.4888 7.15566 14.675 7.17507C14.8612 7.19449 15.0475 7.13913 15.1929 7.02118C15.338 6.90408 15.4305 6.73401 15.45 6.54856C15.4694 6.36312 15.4142 6.17757 15.2965 6.03294L12.2376 2.26824C12.0656 2.1599 11.8826 2.06999 11.6918 2C11.53 2.04958 11.3725 2.11254 11.2212 2.18824L8.09647 6.02353C7.85087 6.32631 7.89722 6.77087 8.2 7.01647C8.50278 7.26207 8.94734 7.21572 9.19294 6.91294L11 4.69176V15.8824ZM3.70588 22H19.7059C20.0957 22 20.4118 21.684 20.4118 21.2941V10C20.4118 9.61015 20.0957 9.29412 19.7059 9.29412H15.7059C15.316 9.29412 15 9.61015 15 10C15 10.3898 15.316 10.7059 15.7059 10.7059H19V20.5882H4.41176V10.7059H7.23529C7.62514 10.7059 7.94118 10.3898 7.94118 10C7.94118 9.61015 7.62514 9.29412 7.23529 9.29412H3.70588C3.31603 9.29412 3 9.61015 3 10V21.2941C3 21.684 3.31603 22 3.70588 22Z" fill="white"/>
</mask>
<g mask="url(#mask0)">
<rect width="24" height="24" fill="#363B48"/>
</g>
</svg>
