<svg width="24" height="24" viewBox="0 0 24 24" fill="none" xmlns="http://www.w3.org/2000/svg">
<mask id="mask0" mask-type="alpha" maskUnits="userSpaceOnUse" x="2" y="2" width="20" height="20">
<path fill-rule="evenodd" clip-rule="evenodd" d="M8.36364 10.1818C8.86571 10.1818 9.27273 9.7748 9.27273 9.27273C9.27273 8.77065 8.86571 8.36364 8.36364 8.36364C7.86156 8.36364 7.45455 8.77065 7.45455 9.27273C7.45455 9.7748 7.86156 10.1818 8.36364 10.1818ZM15.6364 10.1818C16.1384 10.1818 16.5455 9.7748 16.5455 9.27273C16.5455 8.77065 16.1384 8.36364 15.6364 8.36364C15.1343 8.36364 14.7273 8.77065 14.7273 9.27273C14.7273 9.7748 15.1343 10.1818 15.6364 10.1818ZM12 2C6.47715 2 2 6.47715 2 12C2 17.5228 6.47715 22 12 22C17.5228 22 22 17.5228 22 12C22 6.47715 17.5228 2 12 2ZM12 20.6364C7.23027 20.6364 3.36364 16.7697 3.36364 12C3.36364 7.23027 7.23027 3.36364 12 3.36364C16.7697 3.36364 20.6364 7.23027 20.6364 12C20.6364 16.7697 16.7697 20.6364 12 20.6364ZM12 17.9091C9.70605 17.8351 7.60613 16.6029 6.42273 14.6364C6.2219 14.3175 6.31754 13.8963 6.63636 13.6955C6.95518 13.4946 7.37644 13.5903 7.57727 13.9091C8.45527 15.5337 10.1533 16.5462 12 16.5462C13.8467 16.5462 15.5447 15.5337 16.4227 13.9091C16.5526 13.7029 16.7827 13.5816 17.0263 13.591C17.2698 13.6004 17.4899 13.739 17.6036 13.9546C17.7172 14.1702 17.7072 14.4301 17.5773 14.6364C16.3939 16.6029 14.294 17.8351 12 17.9091Z" fill="white"/>
</mask>
<g mask="url(#mask0)">
<rect width="24" height="24" fill="#363B48"/>
</g>
</svg>
