<svg width="24" height="24" viewBox="0 0 24 24" fill="none" xmlns="http://www.w3.org/2000/svg">
<mask id="mask0" mask-type="alpha" maskUnits="userSpaceOnUse" x="2" y="2" width="20" height="20">
<path fill-rule="evenodd" clip-rule="evenodd" d="M17.3829 9.6951C17.3835 9.13003 17.0743 8.61011 16.5775 8.34076C13.0839 6.4529 12.93 6.28874 11.0165 2.80029C10.7467 2.30714 10.2295 2.00034 9.66732 2V2C9.10299 2.00238 8.58523 2.31343 8.31811 2.81055C6.44051 6.29387 6.26609 6.44777 2.80329 8.34589C2.30818 8.61537 2 9.13396 2 9.69766C2 10.2614 2.30818 10.78 2.80329 11.0494C6.29174 12.9424 6.44564 13.1015 8.33863 16.5899C8.60811 17.085 9.12671 17.3932 9.69041 17.3932C10.2541 17.3932 10.7727 17.085 11.0422 16.5899C12.9352 13.1015 13.0942 12.9476 16.5775 11.0546C17.0759 10.7843 17.3853 10.262 17.3829 9.6951ZM9.68784 15.8512C7.63582 12.1011 7.27671 11.7471 3.53176 9.6951C7.26645 7.64307 7.63582 7.28397 9.68784 3.53902C11.7399 7.2891 12.1041 7.64307 15.8439 9.6951C12.099 11.7471 11.7193 12.1062 9.68784 15.8512ZM21.1946 16.5489C19.9326 15.8666 19.9326 15.8666 19.2503 14.6046C18.9808 14.1095 18.4622 13.8013 17.8985 13.8013C17.3348 13.8013 16.8162 14.1095 16.5467 14.6046C15.8644 15.8666 15.8644 15.8666 14.6024 16.5489C14.1073 16.8183 13.7992 17.3369 13.7992 17.9006C13.7992 18.4643 14.1073 18.9829 14.6024 19.2524C15.8644 19.9347 15.8644 19.9347 16.5467 21.1967C16.8162 21.6918 17.3348 22 17.8985 22C18.4622 22 18.9808 21.6918 19.2503 21.1967C19.9326 19.9347 19.9326 19.9347 21.1946 19.2524C21.6897 18.9829 21.9979 18.4643 21.9979 17.9006C21.9979 17.3369 21.6897 16.8183 21.1946 16.5489ZM17.8959 20.4682C17.0495 18.9292 16.8699 18.7497 15.3309 17.9032C16.8699 17.0567 17.0495 16.8772 17.8959 15.3382C18.7424 16.8772 18.922 17.0567 20.461 17.9032C18.9014 18.7497 18.7424 18.9292 17.8959 20.4682Z" fill="white"/>
</mask>
<g mask="url(#mask0)">
<rect width="24" height="24" fill="#0057A1"/>
</g>
</svg>
