<svg width="24" height="24" viewBox="0 0 24 24" fill="none" xmlns="http://www.w3.org/2000/svg">
<mask id="mask0" mask-type="alpha" maskUnits="userSpaceOnUse" x="2" y="2" width="20" height="20">
<path fill-rule="evenodd" clip-rule="evenodd" d="M12 2C6.47715 2 2 6.47715 2 12C2 17.5228 6.47715 22 12 22C17.5228 22 22 17.5228 22 12C22 6.47715 17.5228 2 12 2ZM12 20.6364C7.23027 20.6364 3.36364 16.7697 3.36364 12C3.36364 7.23027 7.23027 3.36364 12 3.36364C16.7697 3.36364 20.6364 7.23027 20.6364 12C20.6364 14.2905 19.7265 16.4872 18.1068 18.1068C16.4872 19.7265 14.2905 20.6364 12 20.6364ZM15.7182 10.4227L13.5591 10.1682L12.5636 8.24545C12.4435 8.0265 12.2085 7.89575 11.9591 7.90909C11.7054 7.89805 11.4688 8.03682 11.3545 8.26364L10.4091 10.1818L8.28182 10.4136C8.02235 10.4419 7.80179 10.6158 7.71376 10.8615C7.62573 11.1072 7.68569 11.3816 7.86818 11.5682L9.47273 13.2L9.13636 15.3727C9.096 15.6293 9.20489 15.8865 9.4172 16.0361C9.62951 16.1856 9.90836 16.2016 10.1364 16.0773L12.05 15.0318L13.9955 16.0136C14.2274 16.1309 14.5058 16.106 14.7133 15.9497C14.9208 15.7933 15.0215 15.5325 14.9727 15.2773L14.5682 13.1318L16.1091 11.5682C16.2919 11.3839 16.3534 11.1113 16.2672 10.8664C16.1811 10.6215 15.9625 10.4474 15.7045 10.4182L15.7182 10.4227ZM13.3591 12.4318C13.2032 12.5914 13.1353 12.8172 13.1773 13.0364L13.3909 14.1727L12.3591 13.65C12.16 13.5449 11.9218 13.5449 11.7227 13.65L10.7045 14.2045L10.8818 13.0591C10.9149 12.8466 10.8459 12.631 10.6955 12.4773L9.83636 11.6045L10.9409 11.4864C11.176 11.4601 11.3808 11.3139 11.4818 11.1L11.9773 10.0545L12.5045 11.0864C12.608 11.2865 12.8037 11.4226 13.0273 11.45L14.1727 11.5909L13.3591 12.4318Z" fill="white"/>
</mask>
<g mask="url(#mask0)">
<rect width="24" height="24" fill="#363B48"/>
</g>
</svg>
