<svg width="24" height="24" viewBox="0 0 24 24" fill="none" xmlns="http://www.w3.org/2000/svg">
<mask id="mask0" mask-type="alpha" maskUnits="userSpaceOnUse" x="2" y="2" width="20" height="20">
<path fill-rule="evenodd" clip-rule="evenodd" d="M12 2C6.47715 2 2 6.47715 2 12C2 17.5228 6.47715 22 12 22C17.5228 22 22 17.5228 22 12C22 6.47715 17.5228 2 12 2ZM12 20.6364C7.23027 20.6364 3.36364 16.7697 3.36364 12C3.36364 7.23027 7.23027 3.36364 12 3.36364C16.7697 3.36364 20.6364 7.23027 20.6364 12C20.6364 16.7697 16.7697 20.6364 12 20.6364ZM16.5455 11.5455H12.4545V6.54545C12.4545 6.1689 12.1493 5.86364 11.7727 5.86364C11.3962 5.86364 11.0909 6.1689 11.0909 6.54545V12.9091H16.5455C16.922 12.9091 17.2273 12.6038 17.2273 12.2273C17.2273 11.8507 16.922 11.5455 16.5455 11.5455V11.5455Z" fill="white"/>
</mask>
<g mask="url(#mask0)">
<rect width="24" height="24" fill="#0057A1"/>
</g>
</svg>
