<svg width="24" height="24" viewBox="0 0 24 24" fill="none" xmlns="http://www.w3.org/2000/svg">
<mask id="mask0" mask-type="alpha" maskUnits="userSpaceOnUse" x="2" y="2" width="20" height="20">
<path fill-rule="evenodd" clip-rule="evenodd" d="M12 2C6.47715 2 2 6.47715 2 12C2 17.5228 6.47715 22 12 22C17.5228 22 22 17.5228 22 12C22 6.47715 17.5228 2 12 2ZM3.36364 12C3.36336 8.21753 5.82446 4.875 9.43646 3.75225C13.0485 2.62949 16.9708 3.98779 19.1148 7.10388C21.2589 10.22 21.1258 14.3687 18.7864 17.3409C17.7444 15.789 16.2326 14.6117 14.4727 13.9818C15.2333 13.1677 15.6502 12.0913 15.6364 10.9773C15.6364 8.70455 14.0045 6.88636 12 6.88636C9.99545 6.88636 8.36364 8.70455 8.36364 10.9773C8.35234 12.1311 8.80425 13.2412 9.61818 14.0591C7.84578 14.6953 6.35081 15.9299 5.39091 17.55C4.08054 15.9977 3.36232 14.0314 3.36364 12ZM12.2273 13.5909C11.9783 13.5919 11.7295 13.6056 11.4818 13.6318C10.3756 13.2307 9.66279 12.1522 9.72727 10.9773C9.72727 9.47273 10.7455 8.25 12 8.25C13.2545 8.25 14.2727 9.47273 14.2727 10.9773C14.3287 12.1191 13.6583 13.1721 12.6 13.6045C12.4773 13.6 12.3545 13.5909 12.2273 13.5909ZM6.4 18.5909C7.38794 16.6622 9.25372 15.3358 11.4 15.0364C11.8425 15.1228 12.2985 15.1119 12.7364 15.0045C14.8575 15.291 16.7303 16.5339 17.8182 18.3773C14.6127 21.336 9.7002 21.4278 6.38636 18.5909H6.4Z" fill="white"/>
</mask>
<g mask="url(#mask0)">
<rect width="24" height="24" fill="#363B48"/>
</g>
</svg>
