<svg width="24" height="24" viewBox="0 0 24 24" fill="none" xmlns="http://www.w3.org/2000/svg">
<mask id="mask0" mask-type="alpha" maskUnits="userSpaceOnUse" x="2" y="3" width="20" height="19">
<path fill-rule="evenodd" clip-rule="evenodd" d="M12 14.9775C14.6878 14.9775 16.878 12.2925 16.878 8.98874C16.878 5.68495 14.6878 3 12 3C9.31219 3 7.12195 5.68495 7.12195 8.98874C7.12195 12.2925 9.31707 14.9775 12 14.9775ZM12 4.49719C13.8878 4.49719 15.4146 6.49343 15.4146 8.98874C15.4146 11.4841 13.8878 13.4803 12 13.4803C10.1122 13.4803 8.58537 11.4841 8.58537 8.98874C8.58537 6.49343 10.1122 4.49719 12 4.49719ZM15.6585 14.9458C15.6989 14.5324 16.0593 14.2307 16.4634 14.2721C16.5171 14.2721 22 14.9109 22 21.0044C22 21.4179 21.6724 21.753 21.2683 21.753H2.73171C2.3276 21.753 2 21.4179 2 21.0044C2 14.9109 7.48293 14.2721 7.53659 14.2721C7.9407 14.2307 8.30105 14.5324 8.34146 14.9458C8.38187 15.3593 8.08704 15.7279 7.68293 15.7693C5.42097 16.057 3.67048 17.9356 3.49756 20.2608H20.5024C20.3445 17.9288 18.5864 16.0421 16.3171 15.7693C15.913 15.7279 15.6181 15.3593 15.6585 14.9458Z" fill="white"/>
</mask>
<g mask="url(#mask0)">
<rect width="24" height="24" fill="#0057A1"/>
</g>
</svg>
