<svg width="24" height="24" viewBox="0 0 24 24" fill="none" xmlns="http://www.w3.org/2000/svg">
<mask id="mask0" mask-type="alpha" maskUnits="userSpaceOnUse" x="2" y="2" width="20" height="20">
<path fill-rule="evenodd" clip-rule="evenodd" d="M11.0016 2.05003C11.3334 2.00003 11.6698 2.00003 12.0016 2.00003C17.1434 1.98811 21.4499 5.89088 21.9425 11.0091C22.4893 16.5042 18.4784 21.4023 12.9834 21.95C12.6516 22 12.3152 22 11.9834 22C6.65812 21.9911 2.27404 17.8104 2.01228 12.4916C1.75052 7.17273 5.70292 2.58181 11.0016 2.05003ZM3.35609 12.4187C3.58188 17.0206 7.38046 20.635 11.9879 20.6318C12.2607 20.6348 12.5485 20.6212 12.8516 20.5909C17.4372 20.143 20.8638 16.1742 20.638 11.5722C20.4122 6.9703 16.6136 3.35599 12.0061 3.35912C11.7334 3.35609 11.4455 3.36972 11.1425 3.40003C6.55683 3.84794 3.1303 7.81675 3.35609 12.4187ZM12.0395 15.1343C12.0395 15.1343 12.238 15.1126 12.3397 15.0054C12.4327 14.9072 12.4295 14.7218 12.4295 14.7218C12.4295 14.7218 12.4171 13.8562 12.8266 13.7284C13.2301 13.6027 13.7482 14.5655 14.298 14.9357C14.7134 15.2156 15.0286 15.1543 15.0286 15.1543L16.4979 15.1343C16.4979 15.1343 17.2662 15.0878 16.902 14.4947C16.8719 14.4461 16.6895 14.0559 15.8098 13.2542C14.8882 12.415 15.012 12.5507 16.1213 11.099C16.7971 10.2149 17.0672 9.67519 16.9827 9.44441C16.9025 9.22366 16.4054 9.28228 16.4054 9.28228L14.7516 9.29231C14.7516 9.29231 14.6289 9.27594 14.538 9.32928C14.4492 9.38156 14.3916 9.50355 14.3916 9.50355C14.3916 9.50355 14.1302 10.1875 13.781 10.7694C13.0445 11.9968 12.7502 12.0617 12.6297 11.9857C12.3494 11.8077 12.4193 11.2717 12.4193 10.8909C12.4193 9.70107 12.6033 9.20517 12.0615 9.07684C11.8818 9.03406 11.7495 9.00607 11.2895 9.00132C10.6993 8.99551 10.2 9.00343 9.91701 9.13916C9.7287 9.22946 9.58344 9.4312 9.67221 9.44282C9.78143 9.45708 10.0289 9.50831 10.1602 9.68364C10.3297 9.9102 10.3237 10.4182 10.3237 10.4182C10.3237 10.4182 10.4211 11.8188 10.0962 11.9925C9.87343 12.1119 9.56784 11.8684 8.91093 10.7546C8.57467 10.1843 8.32073 9.55372 8.32073 9.55372C8.32073 9.55372 8.27177 9.43596 8.18407 9.37258C8.07809 9.29601 7.93013 9.27224 7.93013 9.27224L6.3586 9.28228C6.3586 9.28228 6.12242 9.28861 6.0358 9.38948C5.95886 9.47873 6.02988 9.6641 6.02988 9.6641C6.02988 9.6641 7.26031 12.49 8.65376 13.9143C9.93153 15.2198 11.382 15.1343 11.382 15.1343H12.0395Z" fill="white"/>
</mask>
<g mask="url(#mask0)">
<rect width="24" height="24" fill="#363B48"/>
</g>
</svg>
