<svg width="24" height="24" viewBox="0 0 24 24" fill="none" xmlns="http://www.w3.org/2000/svg">
<mask id="mask0" mask-type="alpha" maskUnits="userSpaceOnUse" x="2" y="4" width="20" height="17">
<path fill-rule="evenodd" clip-rule="evenodd" d="M17.2059 5.42823C19.0622 5.42823 20.567 6.93305 20.567 8.78934V15.402C20.567 17.2583 19.0622 18.7632 17.2059 18.7632H6.78934C4.93305 18.7632 3.42823 17.2583 3.42823 15.402V8.78934C3.42823 6.93305 4.93305 5.42823 6.78934 5.42823H17.2107H17.2059ZM17.2107 4H6.78934C4.14535 4.00262 2.00262 6.14535 2 8.78934V15.402C2.00525 18.0442 4.1472 20.184 6.78934 20.1866H17.2107C19.8547 20.184 21.9974 18.0413 22 15.3973V8.78457C21.9947 6.14059 19.8499 3.99999 17.2059 4H17.2107ZM10.5694 9.71293L14.378 12.0933L10.5694 14.4737V9.71293ZM10.5694 8.28469C9.7806 8.28469 9.14116 8.92414 9.14116 9.71293V14.4737C9.14185 14.9926 9.42387 15.4702 9.87786 15.7214C10.3318 15.9727 10.8864 15.9579 11.3264 15.6829L15.135 13.3025C15.553 13.0416 15.807 12.5837 15.807 12.0909C15.807 11.5982 15.553 11.1402 15.135 10.8793L11.3264 8.49893C11.0996 8.35639 10.8373 8.2805 10.5694 8.27993V8.28469Z" fill="white"/>
</mask>
<g mask="url(#mask0)">
<rect width="24" height="24" fill="#363B48"/>
</g>
</svg>
