<svg width="24" height="24" viewBox="0 0 24 24" fill="none" xmlns="http://www.w3.org/2000/svg">
<path d="M12.0054 2.25003L12.006 2.25003C17.0209 2.2384 21.2208 6.04333 21.7012 11.0331L21.7013 11.0339C22.2347 16.3915 18.3226 21.1672 12.9628 21.7012L12.9628 21.7009L12.9504 21.7028C12.6401 21.7495 12.3226 21.75 11.9876 21.75C6.79337 21.7413 2.51729 17.6651 2.26198 12.4793C2.00667 7.2935 5.86168 2.81728 11.03 2.29878L11.03 2.29908L11.0423 2.29724C11.3526 2.25049 11.6703 2.25003 12.0054 2.25003Z" stroke="#979797" stroke-width="0.5"/>
<mask id="mask0" mask-type="alpha" maskUnits="userSpaceOnUse" x="2" y="2" width="20" height="20">
<path d="M12.0054 2.25003L12.006 2.25003C17.0209 2.2384 21.2208 6.04333 21.7012 11.0331L21.7013 11.0339C22.2347 16.3915 18.3226 21.1672 12.9628 21.7012L12.9628 21.7009L12.9504 21.7028C12.6401 21.7495 12.3226 21.75 11.9876 21.75C6.79337 21.7413 2.51729 17.6651 2.26198 12.4793C2.00667 7.2935 5.86168 2.81728 11.03 2.29878L11.03 2.29908L11.0423 2.29724C11.3526 2.25049 11.6703 2.25003 12.0054 2.25003Z" fill="white" stroke="white" stroke-width="0.5"/>
</mask>
<g mask="url(#mask0)">
<path fill-rule="evenodd" clip-rule="evenodd" d="M0 15.3333H24V8.66667H0V15.3333Z" fill="#0C47B7"/>
<path fill-rule="evenodd" clip-rule="evenodd" d="M0 22H24V15.3333H0V22Z" fill="#E53B35"/>
<path fill-rule="evenodd" clip-rule="evenodd" d="M24 2L0 2V8.66667L24 8.66667V2Z" fill="white"/>
</g>
</svg>
