<svg width="24" height="24" viewBox="0 0 24 24" fill="none" xmlns="http://www.w3.org/2000/svg">
<mask id="mask0" mask-type="alpha" maskUnits="userSpaceOnUse" x="2" y="2" width="20" height="20">
<path fill-rule="evenodd" clip-rule="evenodd" d="M12 2C6.47715 2 2 6.47715 2 12C2 17.5228 6.47715 22 12 22C17.5228 22 22 17.5228 22 12C22 6.47715 17.5228 2 12 2ZM12 20.6364C7.23027 20.6364 3.36364 16.7697 3.36364 12C3.36364 7.23027 7.23027 3.36364 12 3.36364C16.7697 3.36364 20.6364 7.23027 20.6364 12C20.6364 16.7697 16.7697 20.6364 12 20.6364ZM15.7909 7L10.1682 10.1136H10.1364L10.0773 10.1545L10.0136 10.2091L9.96818 10.2636L9.91818 10.3318V10.3636L6.82273 16.0909C6.6982 16.3516 6.75155 16.6626 6.95586 16.8669C7.16017 17.0712 7.47109 17.1245 7.73182 17L13.3545 13.8864H13.3864L13.4455 13.8455L13.5091 13.7909L13.5545 13.7364L13.6045 13.6682V13.6364L16.6727 7.89545C16.7973 7.63472 16.7439 7.32381 16.5396 7.1195C16.3353 6.91518 16.0244 6.86184 15.7636 6.98636L15.7909 7ZM10.6591 11.8545L11.9409 13.1727L9.11818 14.7364L10.6591 11.8545ZM12.8909 12.1955L11.6091 10.8773L14.4318 9.31364L12.8909 12.1955ZM18.8182 11.5455H17.4545C17.2035 11.5455 17 11.749 17 12C17 12.251 17.2035 12.4545 17.4545 12.4545H18.8182C19.0692 12.4545 19.2727 12.251 19.2727 12C19.2727 11.749 19.0692 11.5455 18.8182 11.5455ZM7 12C7 11.749 6.79649 11.5455 6.54545 11.5455H5.18182C4.93078 11.5455 4.72727 11.749 4.72727 12C4.72727 12.251 4.93078 12.4545 5.18182 12.4545H6.54545C6.79649 12.4545 7 12.251 7 12ZM12 17C11.749 17 11.5455 17.2035 11.5455 17.4545V18.8182C11.5455 19.0692 11.749 19.2727 12 19.2727C12.251 19.2727 12.4545 19.0692 12.4545 18.8182V17.4545C12.4545 17.2035 12.251 17 12 17ZM12 7C12.251 7 12.4545 6.79649 12.4545 6.54545V5.18182C12.4545 4.93078 12.251 4.72727 12 4.72727C11.749 4.72727 11.5455 4.93078 11.5455 5.18182V6.54545C11.5455 6.79649 11.749 7 12 7Z" fill="white"/>
</mask>
<g mask="url(#mask0)">
<rect width="24" height="24" fill="#363B48"/>
</g>
</svg>
