<svg width="32" height="32" viewBox="0 0 32 32" fill="none" xmlns="http://www.w3.org/2000/svg">
<rect width="32" height="32" fill="white"/>
<path fill-rule="evenodd" clip-rule="evenodd" d="M5.01307 14.7761C5.98001 11.8345 10.6596 9.60327 16.2867 9.60327C22.6141 9.60327 27.7435 12.4244 27.7435 15.9045C27.7435 19.3846 22.6141 22.2057 16.2867 22.2057C10.6596 22.2057 5.97998 19.9745 5.01306 17.0329C4.7892 16.9936 4.57477 16.8875 4.40185 16.7146C3.95444 16.2672 3.95444 15.5418 4.40185 15.0944C4.57477 14.9215 4.7892 14.8154 5.01307 14.7761ZM5.40849 14.7757C6.38463 11.9604 10.884 9.83243 16.287 9.83243C22.4035 9.83243 27.3619 12.5595 27.3619 15.9236C27.3619 19.2877 22.4035 22.0148 16.287 22.0148C10.8609 22.0148 6.34616 19.8686 5.39616 17.0353C5.62532 16.9982 5.84538 16.8913 6.02208 16.7146C6.4695 16.2672 6.4695 15.5418 6.02208 15.0944C5.84856 14.9209 5.63321 14.8146 5.40849 14.7757Z" fill="#363B48"/>
<path fill-rule="evenodd" clip-rule="evenodd" d="M24.4375 9.03424C25.8338 11.798 24.1025 16.6847 20.1236 20.6636C15.6494 25.1378 10.0275 26.7699 7.56676 24.3092C5.10596 21.8484 6.73813 16.2265 11.2123 11.7523C15.1912 7.77338 20.0779 6.04211 22.8417 7.43844C23.0278 7.30784 23.2545 7.23119 23.4991 7.23119C24.1318 7.23119 24.6447 7.74412 24.6447 8.37687C24.6447 8.62147 24.5681 8.84816 24.4375 9.03424ZM24.1585 9.31387C25.459 11.9948 23.7822 16.6811 19.9616 20.5016C15.6366 24.8267 10.2021 26.4044 7.82338 24.0257C5.4446 21.6469 7.02236 16.2124 11.3474 11.8874C15.1842 8.05054 19.8942 6.37577 22.5693 7.70733C22.4335 7.89565 22.3534 8.12691 22.3534 8.37687C22.3534 9.0096 22.8664 9.52254 23.4991 9.52254C23.7446 9.52254 23.972 9.44533 24.1585 9.31387Z" fill="#363B48"/>
<path fill-rule="evenodd" clip-rule="evenodd" d="M22.8418 24.4375C20.078 25.8337 15.1914 24.1025 11.2124 20.1236C6.73829 15.6494 5.10614 10.0275 7.56691 7.56677C10.0277 5.10597 15.6496 6.73814 20.1237 11.2123C24.1027 15.1913 25.834 20.078 24.4376 22.8418C24.5681 23.0279 24.6447 23.2545 24.6447 23.4991C24.6447 24.1318 24.1318 24.6448 23.4991 24.6448C23.2545 24.6448 23.0278 24.5681 22.8418 24.4375ZM22.5621 24.1585C19.8811 25.4587 15.1951 23.7819 11.3747 19.9615C7.0497 15.6365 5.47196 10.202 7.85071 7.82329C10.2295 5.44452 15.664 7.02228 19.989 11.3473C23.8259 15.1842 25.5007 19.8944 24.1689 22.5695C23.9805 22.4335 23.7492 22.3534 23.4991 22.3534C22.8664 22.3534 22.3534 22.8663 22.3534 23.4991C22.3534 23.7446 22.4307 23.9721 22.5621 24.1585Z" fill="#363B48"/>
<path fill-rule="evenodd" clip-rule="evenodd" d="M12.4678 15.9045C12.4678 14.0063 14.0066 12.4675 15.9048 12.4675C17.8031 12.4675 19.3419 14.0063 19.3419 15.9045C19.3419 17.8028 17.8031 19.3416 15.9048 19.3416C14.0066 19.3416 12.4678 17.8028 12.4678 15.9045Z" fill="#363B48"/>
</svg>
