<svg width="24" height="24" viewBox="0 0 24 24" fill="none" xmlns="http://www.w3.org/2000/svg">
<mask id="mask0" mask-type="alpha" maskUnits="userSpaceOnUse" x="2" y="3" width="20" height="19">
<path fill-rule="evenodd" clip-rule="evenodd" d="M21.0004 9.60023L19.6676 9.24634C19.1409 9.24191 18.6659 8.92883 18.4542 8.44662L16.6755 7.98701H16.5928C16.5505 7.40223 16.1431 6.90813 15.5771 6.75527L7.57991 4.63188H7.49718C7.45492 4.0471 7.04747 3.553 6.48144 3.40013L5.14858 3.04624C4.79508 2.95231 4.41875 3.0027 4.10241 3.1863C3.78606 3.3699 3.55563 3.67167 3.46183 4.0252L2.04624 9.35664C1.95231 9.71014 2.0027 10.0865 2.1863 10.4028C2.3699 10.7192 2.67167 10.9496 3.0252 11.0434L4.35806 11.3973C4.94398 11.5468 5.55894 11.2971 5.87476 10.7814L5.9529 10.809L9.85496 11.8431L7.71319 20.2677C7.66869 20.4451 7.69647 20.6328 7.79042 20.7897C7.88437 20.9466 8.0368 21.0597 8.21416 21.1042C8.27064 21.1111 8.32774 21.1111 8.38422 21.1042C8.70018 21.1029 8.97482 20.887 9.05065 20.5802L11.1465 12.197L13.3342 12.7761L15.0623 20.5573C15.1448 20.9291 15.5131 21.1637 15.885 21.0812C16.2569 20.9987 16.4915 20.6304 16.409 20.2585L14.7682 12.8726C15.0255 12.7715 15.2465 12.5954 15.4024 12.3671L15.476 12.3946L17.2546 12.8543C17.6795 12.5433 18.2463 12.5074 18.707 12.7623L20.0399 13.1162C20.3934 13.2101 20.7697 13.1598 21.086 12.9762C21.4024 12.7926 21.6328 12.4908 21.7266 12.1373L21.961 11.2502C22.135 10.5316 21.7112 9.80374 21.0004 9.60023ZM15.2967 8.02378L14.3775 11.7006C14.2304 11.6041 6.28381 9.49452 6.28381 9.49452L6.92267 7.09078L7.2306 5.93716L15.2967 8.02378ZM3.38369 9.67837L4.79928 4.34692L6.13214 4.70082L5.58981 6.74148L4.95095 9.14522L4.71655 10.0323L3.38369 9.67837ZM17.6315 11.5582L15.8528 11.0986L16.3124 9.31987L18.0911 9.77948L17.6315 11.5582ZM20.4167 11.8201L19.0839 11.4662L19.3183 10.5792L20.6511 10.9331L20.4167 11.8201Z" fill="white"/>
</mask>
<g mask="url(#mask0)">
<rect width="24" height="24" fill="#363B48"/>
</g>
</svg>
