<svg width="24" height="24" viewBox="0 0 24 24" fill="none" xmlns="http://www.w3.org/2000/svg">
<mask id="mask0" mask-type="alpha" maskUnits="userSpaceOnUse" x="2" y="2" width="20" height="20">
<path fill-rule="evenodd" clip-rule="evenodd" d="M20.0757 7.46072H18.7105V5.64048C18.7105 4.88651 18.0993 4.2753 17.3453 4.2753H15.5251V3.36518C15.5251 2.61121 14.9139 2 14.1599 2H6.42387C5.6699 2 5.05869 2.61121 5.05869 3.36518V7.46072H3.35221C2.7918 7.46607 2.29158 7.81338 2.09073 8.33659C1.88988 8.8598 2.02921 9.45262 2.44209 9.83159L8.71282 15.5699V20.6575C8.72207 21.2137 9.06786 21.7086 9.58692 21.9086C10.106 22.1087 10.6945 21.9737 11.0746 21.5676L14.26 18.1546C14.4915 17.9075 14.6229 17.5831 14.6286 17.2445V15.7883L20.9995 9.84524C21.4227 9.46815 21.5689 8.86871 21.3668 8.3391C21.1646 7.80948 20.6562 7.45989 20.0893 7.46072H20.0757ZM6.42387 3.36518H14.1599V5.64048H17.3453V7.46072H6.42387V3.36518ZM13.2498 15.1968V17.2445L10.0644 20.6575V14.9692L3.34766 8.82591H20.0711L13.2498 15.1968Z" fill="white"/>
</mask>
<g mask="url(#mask0)">
<rect width="24" height="24" fill="#363B48"/>
</g>
</svg>
