<svg width="16" height="16" viewBox="0 0 16 16" fill="none" xmlns="http://www.w3.org/2000/svg">
<mask id="mask0" mask-type="alpha" maskUnits="userSpaceOnUse" x="2" y="2" width="12" height="12">
<path fill-rule="evenodd" clip-rule="evenodd" d="M4.08352 3.64034C3.80018 3.64034 3.62054 3.86136 3.64245 4.07751C4.07524 8.44782 7.55221 11.9248 11.9225 12.3576C12.1387 12.3795 12.3597 12.1999 12.3597 11.9165V10.1839C12.3597 9.97453 12.2258 9.78856 12.0267 9.72235L10.3423 9.16055C10.1675 9.10262 9.9747 9.14789 9.84423 9.27836L9.57452 9.54807C9.25224 9.87035 8.73814 9.93218 8.34916 9.66588C7.42807 9.03592 6.89206 8.50332 6.32003 7.6426C6.06153 7.25313 6.1292 6.7478 6.44612 6.43136L6.72167 6.15581C6.85214 6.02534 6.89742 5.83255 6.839 5.65778L6.27768 3.97333C6.21147 3.77422 6.0255 3.64034 5.81616 3.64034H4.08352ZM2.67364 4.17391C2.58893 3.32 3.29143 2.66667 4.08351 2.66667H5.81615C6.44465 2.66667 7.00256 3.0688 7.20119 3.66517L7.763 5.34961C7.93777 5.87442 7.80146 6.45327 7.41004 6.84419L7.13888 7.11536C7.63058 7.8534 8.07263 8.29642 8.88953 8.85628L9.15583 8.58998C9.54676 8.19857 10.1256 8.06225 10.6504 8.23703L12.3349 8.79883C12.9312 8.99746 13.3334 9.55537 13.3334 10.1839V11.9165C13.3334 12.7086 12.68 13.4111 11.8261 13.3264C6.99429 12.8478 3.15219 9.00574 2.67364 4.17391ZM9.43867 3.15351C9.43867 2.88477 9.65678 2.66667 9.92551 2.66667C11.8076 2.66667 13.3333 4.19241 13.3333 6.07451C13.3333 6.34324 13.1152 6.56134 12.8465 6.56134C12.5778 6.56134 12.3597 6.34324 12.3597 6.07451C12.3597 4.73036 11.2697 3.64034 9.92551 3.64034C9.65678 3.64034 9.43867 3.42224 9.43867 3.15351ZM9.43867 5.10084C9.43867 4.83211 9.65678 4.614 9.92551 4.614C10.7322 4.614 11.386 5.26782 11.386 6.07451C11.386 6.34324 11.1679 6.56134 10.8992 6.56134C10.6304 6.56134 10.4123 6.34324 10.4123 6.07451C10.4123 5.80577 10.1942 5.58767 9.92551 5.58767C9.65678 5.58767 9.43867 5.36957 9.43867 5.10084Z" fill="white"/>
</mask>
<g mask="url(#mask0)">
<rect width="16" height="16" fill="#363B48"/>
</g>
</svg>
