<svg width="24" height="24" viewBox="0 0 24 24" fill="none" xmlns="http://www.w3.org/2000/svg">
<mask id="mask0" mask-type="alpha" maskUnits="userSpaceOnUse" x="7" y="9" width="10" height="6">
<path fill-rule="evenodd" clip-rule="evenodd" d="M16.0311 9C15.8271 9.01 15.6261 9.095 15.4731 9.254L11.9471 13.012L8.42114 9.254C8.26614 9.092 8.06014 9.007 7.85314 9H7.79714C7.60414 9.007 7.41314 9.08 7.26214 9.223C6.93114 9.531 6.91114 10.048 7.21614 10.382L11.4301 14.783C11.4661 14.81 11.5051 14.833 11.5461 14.854C11.5881 14.888 11.6351 14.918 11.6821 14.942C11.7331 14.958 11.7851 14.969 11.8371 14.975C11.8791 14.989 11.9231 14.997 11.9671 15H12.0151C12.0591 14.997 12.1031 14.989 12.1451 14.975C12.1971 14.969 12.2491 14.958 12.2991 14.942C12.3481 14.918 12.3931 14.888 12.4371 14.854C12.4771 14.833 12.5161 14.81 12.5521 14.783L16.6781 10.382C16.9821 10.048 16.9631 9.531 16.6321 9.223C16.4841 9.083 16.2971 9.009 16.1071 9H16.0311Z" fill="white"/>
</mask>
<g mask="url(#mask0)">
<rect width="24" height="24" fill="#363B48"/>
</g>
</svg>
