<svg width="24" height="24" viewBox="0 0 24 24" fill="none" xmlns="http://www.w3.org/2000/svg">
<mask id="mask0" mask-type="alpha" maskUnits="userSpaceOnUse" x="4" y="4" width="16" height="16">
<path fill-rule="evenodd" clip-rule="evenodd" d="M6.12525 5.4605C5.70024 5.4605 5.43078 5.79204 5.46364 6.11627C6.11283 12.6717 11.3283 17.8872 17.8837 18.5364C18.208 18.5692 18.5395 18.2998 18.5395 17.8748V15.2758C18.5395 14.9618 18.3387 14.6828 18.04 14.5835L15.5134 13.7408C15.2512 13.6539 14.962 13.7218 14.7663 13.9175L14.3617 14.3221C13.8783 14.8055 13.1072 14.8983 12.5237 14.4988C11.1421 13.5539 10.3381 12.755 9.48002 11.4639C9.09226 10.8797 9.19376 10.1217 9.66916 9.64703L10.0825 9.23371C10.2782 9.038 10.3461 8.74882 10.2585 8.48666L9.41649 5.95999C9.31717 5.66132 9.03822 5.4605 8.72421 5.4605H6.12525ZM4.01042 6.26086C3.88336 4.98 4.93711 4 6.12523 4H8.72419C9.66695 4 10.5038 4.60319 10.8018 5.49774L11.6445 8.02441C11.9066 8.81162 11.7022 9.67989 11.115 10.2663L10.7083 10.673C11.4458 11.7801 12.1089 12.4446 13.3343 13.2844L13.7337 12.885C14.3201 12.2978 15.1884 12.0934 15.9756 12.3555L18.5023 13.1982C19.3968 13.4962 20 14.3331 20 15.2758V17.8748C20 19.0629 19.02 20.1166 17.7391 19.9896C10.4914 19.2717 4.72826 13.5086 4.01042 6.26086ZM14.158 4.73025C14.158 4.32715 14.4851 4 14.8882 4C17.7114 4 20 6.28861 20 9.11176C20 9.51486 19.6728 9.84201 19.2697 9.84201C18.8666 9.84201 18.5395 9.51486 18.5395 9.11176C18.5395 7.09553 16.9044 5.4605 14.8882 5.4605C14.4851 5.4605 14.158 5.13335 14.158 4.73025ZM14.158 7.65125C14.158 7.24816 14.4851 6.921 14.8882 6.921C16.0983 6.921 17.079 7.90173 17.079 9.11176C17.079 9.51485 16.7518 9.84201 16.3487 9.84201C15.9456 9.84201 15.6185 9.51485 15.6185 9.11176C15.6185 8.70866 15.2913 8.3815 14.8882 8.3815C14.4851 8.3815 14.158 8.05435 14.158 7.65125Z" fill="white"/>
</mask>
<g mask="url(#mask0)">
<rect width="24" height="24" fill="#363B48"/>
</g>
</svg>
