<svg width="16" height="16" viewBox="0 0 16 16" fill="none" xmlns="http://www.w3.org/2000/svg">
<mask id="mask0" mask-type="alpha" maskUnits="userSpaceOnUse" x="1" y="2" width="14" height="11">
<path fill-rule="evenodd" clip-rule="evenodd" d="M13.7576 2.66667H2.2424C1.74033 2.66667 1.33331 3.07369 1.33331 3.57576V12.0606C1.33331 12.5627 1.74033 12.9697 2.2424 12.9697H13.7576C14.2596 12.9697 14.6666 12.5627 14.6666 12.0606V3.57576C14.6666 3.07369 14.2596 2.66667 13.7576 2.66667ZM13.7576 11.4182L11.3515 9.01213C11.1724 8.84524 10.8933 8.85017 10.7202 9.02326C10.5471 9.19636 10.5422 9.47545 10.7091 9.65455L13.1151 12.0606H2.88482L5.29089 9.65455C5.45777 9.47545 5.45285 9.19636 5.27975 9.02326C5.10665 8.85017 4.82756 8.84524 4.64846 9.01213L2.2424 11.4182V5.58485L7.69695 9.69697C7.85856 9.81819 8.08078 9.81819 8.2424 9.69697L13.7515 5.58182L13.7576 11.4182ZM13.7576 3.57576V4.44849L7.97876 8.76667L2.2424 4.44849V3.57576H13.7576Z" fill="white"/>
</mask>
<g mask="url(#mask0)">
<rect width="16" height="16" fill="#363B48"/>
</g>
</svg>
